<svg width="1440" height="19" viewBox="0 0 1440 19" fill="none" xmlns="http://www.w3.org/2000/svg">
<path d="M-156 19V0.119999H-154.08V19H-156ZM-153.12 19V0.119999H-152.16V19H-153.12ZM-149.28 19V0.119999H-148.32V19H-149.28ZM-145.438 19V0.119999H-144.477V19H-145.438ZM-143.517 19V0.119999H-141.597V19H-143.517ZM-139.677 19V0.119999H-138.717V19H-139.677ZM-134.875 19V0.119999H-132.955V19H-134.875ZM-129.115 19V0.119999H-128.155V19H-129.115ZM-127.195 19V0.119999H-126.235V19H-127.195ZM-124.312 19V0.119999H-123.352V19H-124.312ZM-121.432 19V0.119999H-117.592V19H-121.432ZM-116.632 19V0.119999H-115.672V19H-116.632ZM-113.75 19V0.119999H-111.83V19H-113.75ZM-109.91 19V0.119999H-108.95V19H-109.91ZM-107.99 19V0.119999H-107.03V19H-107.99ZM-103.188 19V0.119999H-102.227V19H-103.188ZM-101.267 19V0.119999H-99.3475V19H-101.267ZM-97.4275 19V0.119999H-96.4675V19H-97.4275ZM-92.625 19V0.119999H-88.785V19H-92.625ZM-87.825 19V0.119999H-84.945V19H-87.825ZM-83.985 19V0.119999H-83.025V19H-83.985ZM-82.0625 19V0.119999H-81.1025V19H-82.0625ZM-80.1425 19V0.119999H-78.2225V19H-80.1425ZM-76.3025 19V0.119999H-75.3425V19H-76.3025ZM-71.5 19V0.119999H-69.58V19H-71.5ZM-65.74 19V0.119999H-64.78V19H-65.74ZM-63.82 19V0.119999H-62.86V19H-63.82ZM-60.9375 19V0.119999H-59.9775V19H-60.9375ZM-59.0175 19V0.119999H-57.0975V19H-59.0175ZM-55.1775 19V0.119999H-52.2975V19H-55.1775ZM-50.375 19V0.119999H-48.455V19H-50.375ZM-47.495 19V0.119999H-45.575V19H-47.495ZM-43.655 19V0.119999H-41.735V19H-43.655ZM-39.8125 19V0.119999H-38.8525V19H-39.8125ZM-35.0125 19V0.119999H-33.0925V19H-35.0125ZM-32.1325 19V0.119999H-31.1725V19H-32.1325ZM-29.25 19V0.119999H-28.29V19H-29.25ZM-27.33 19V0.119999H-25.41V19H-27.33ZM-21.57 19V0.119999H-20.61V19H-21.57ZM-18.6875 19V0.119999H-16.7675V19H-18.6875ZM-15.8075 19V0.119999H-13.8875V19H-15.8075ZM-11.9675 19V0.119999H-10.0475V19H-11.9675ZM-8.125 19V0.119999H-6.205V19H-8.125ZM-5.245 19V0.119999H-3.325V19H-5.245ZM-2.365 19V0.119999H1.475V19H-2.365ZM2.4375 19V0.119999H3.3975V19H2.4375ZM6.2775 19V0.119999H10.1175V19H6.2775ZM11.0775 19V0.119999H12.0375V19H11.0775ZM13 19V0.119999H13.96V19H13ZM15.88 19V0.119999H19.72V19H15.88ZM21.64 19V0.119999H22.6V19H21.64ZM23.5625 19V0.119999H25.4825V19H23.5625ZM26.4425 19V0.119999H28.3625V19H26.4425ZM30.2825 19V0.119999H32.2025V19H30.2825ZM34.125 19V0.119999H35.085V19H34.125ZM38.925 19V0.119999H39.885V19H38.925ZM40.845 19V0.119999H42.765V19H40.845ZM44.6875 19V0.119999H45.6475V19H44.6875ZM48.5275 19V0.119999H52.3675V19H48.5275ZM53.3275 19V0.119999H54.2875V19H53.3275ZM55.25 19V0.119999H57.17V19H55.25ZM61.01 19V0.119999H61.97V19H61.01ZM62.93 19V0.119999H63.89V19H62.93ZM65.8125 19V0.119999H66.7725V19H65.8125ZM68.6925 19V0.119999H72.5325V19H68.6925ZM73.4925 19V0.119999H74.4525V19H73.4925ZM76.375 19V0.119999H77.335V19H76.375ZM81.175 19V0.119999H83.095V19H81.175ZM84.055 19V0.119999H85.015V19H84.055ZM86.9375 19V0.119999H88.8575V19H86.9375ZM92.6975 19V0.119999H93.6575V19H92.6975ZM94.6175 19V0.119999H95.5775V19H94.6175ZM97.5 19V0.119999H98.46V19H97.5ZM100.38 19V0.119999H104.22V19H100.38ZM106.14 19V0.119999H107.1V19H106.14ZM108.062 19V0.119999H109.023V19H108.062ZM109.983 19V0.119999H111.903V19H109.983ZM113.823 19V0.119999H114.783V19H113.823ZM118.625 19V0.119999H120.545V19H118.625ZM121.505 19V0.119999H123.425V19H121.505ZM125.345 19V0.119999H127.265V19H125.345ZM129.188 19V0.119999H130.148V19H129.188ZM132.068 19V0.119999H135.908V19H132.068ZM136.868 19V0.119999H137.828V19H136.868ZM139.75 19V0.119999H140.71V19H139.75ZM143.59 19V0.119999H147.43V19H143.59ZM148.39 19V0.119999H149.35V19H148.39ZM150.312 19V0.119999H152.233V19H150.312ZM153.193 19V0.119999H155.113V19H153.193ZM157.033 19V0.119999H158.953V19H157.033ZM160.875 19V0.119999H161.835V19H160.875ZM163.755 19V0.119999H164.715V19H163.755ZM168.555 19V0.119999H170.475V19H168.555ZM171.438 19V0.119999H172.398V19H171.438ZM173.358 19V0.119999H175.278V19H173.358ZM177.198 19V0.119999H178.158V19H177.198ZM182 19V0.119999H182.96V19H182ZM184.88 19V0.119999H186.8V19H184.88ZM190.64 19V0.119999H191.6V19H190.64ZM192.562 19V0.119999H193.523V19H192.562ZM195.443 19V0.119999H196.403V19H195.443ZM197.363 19V0.119999H199.283V19H197.363ZM203.125 19V0.119999H206.965V19H203.125ZM207.925 19V0.119999H208.885V19H207.925ZM210.805 19V0.119999H211.765V19H210.805ZM213.688 19V0.119999H214.648V19H213.688ZM215.608 19V0.119999H217.528V19H215.608ZM219.448 19V0.119999H220.408V19H219.448ZM224.25 19V0.119999H226.17V19H224.25ZM227.13 19V0.119999H229.05V19H227.13ZM230.97 19V0.119999H232.89V19H230.97ZM234.812 19V0.119999H235.773V19H234.812ZM237.693 19V0.119999H241.533V19H237.693ZM242.493 19V0.119999H243.453V19H242.493ZM245.375 19V0.119999H246.335V19H245.375ZM248.255 19V0.119999H250.175V19H248.255ZM254.015 19V0.119999H254.975V19H254.015ZM255.938 19V0.119999H256.898V19H255.938ZM260.738 19V0.119999H262.658V19H260.738ZM263.618 19V0.119999H264.578V19H263.618ZM266.5 19V0.119999H267.46V19H266.5ZM268.42 19V0.119999H272.26V19H268.42ZM274.18 19V0.119999H275.14V19H274.18ZM277.062 19V0.119999H278.983V19H277.062ZM279.943 19V0.119999H281.863V19H279.943ZM283.783 19V0.119999H285.703V19H283.783ZM287.625 19V0.119999H291.465V19H287.625ZM293.385 19V0.119999H294.345V19H293.385ZM295.305 19V0.119999H296.265V19H295.305ZM298.188 19V0.119999H299.148V19H298.188ZM301.068 19V0.119999H302.028V19H301.068ZM302.988 19V0.119999H304.908V19H302.988ZM308.75 19V0.119999H310.67V19H308.75ZM311.63 19V0.119999H313.55V19H311.63ZM314.51 19V0.119999H318.35V19H314.51ZM319.312 19V0.119999H320.273V19H319.312ZM321.233 19V0.119999H323.153V19H321.233ZM325.073 19V0.119999H327.953V19H325.073ZM329.875 19V0.119999H331.795V19H329.875ZM332.755 19V0.119999H334.675V19H332.755ZM336.595 19V0.119999H338.515V19H336.595ZM340.438 19V0.119999H342.358V19H340.438ZM345.238 19V0.119999H346.198V19H345.238ZM349.078 19V0.119999H350.038V19H349.078ZM351 19V0.119999H352.92V19H351ZM353.88 19V0.119999H355.8V19H353.88ZM357.72 19V0.119999H359.64V19H357.72ZM361.562 19V0.119999H365.403V19H361.562ZM367.323 19V0.119999H368.283V19H367.323ZM369.243 19V0.119999H370.203V19H369.243ZM372.125 19V0.119999H373.085V19H372.125ZM376.925 19V0.119999H378.845V19H376.925ZM379.805 19V0.119999H380.765V19H379.805ZM382.688 19V0.119999H384.608V19H382.688ZM386.528 19V0.119999H387.488V19H386.528ZM388.448 19V0.119999H389.408V19H388.448ZM393.25 19V0.119999H395.17V19H393.25ZM397.09 19V0.119999H398.05V19H397.09ZM399.01 19V0.119999H399.97V19H399.01ZM403.812 19V0.119999H405.733V19H403.812ZM406.693 19V0.119999H408.613V19H406.693ZM410.533 19V0.119999H412.453V19H410.533ZM414.375 19V0.119999H415.335V19H414.375ZM417.255 19V0.119999H419.175V19H417.255ZM423.015 19V0.119999H423.975V19H423.015ZM424.938 19V0.119999H425.898V19H424.938ZM427.818 19V0.119999H428.778V19H427.818ZM429.738 19V0.119999H431.658V19H429.738ZM435.5 19V0.119999H439.34V19H435.5ZM440.3 19V0.119999H441.26V19H440.3ZM443.18 19V0.119999H444.14V19H443.18ZM446.062 19V0.119999H447.023V19H446.062ZM447.983 19V0.119999H449.903V19H447.983ZM451.823 19V0.119999H452.783V19H451.823ZM456.625 19V0.119999H458.545V19H456.625ZM459.505 19V0.119999H461.425V19H459.505ZM463.345 19V0.119999H465.265V19H463.345ZM467.188 19V0.119999H468.148V19H467.188ZM470.068 19V0.119999H473.908V19H470.068ZM474.868 19V0.119999H475.828V19H474.868ZM477.75 19V0.119999H478.71V19H477.75ZM481.59 19V0.119999H485.43V19H481.59ZM486.39 19V0.119999H487.35V19H486.39ZM488.312 19V0.119999H490.233V19H488.312ZM491.193 19V0.119999H493.113V19H491.193ZM495.033 19V0.119999H496.953V19H495.033ZM498.875 19V0.119999H499.835V19H498.875ZM501.755 19V0.119999H502.715V19H501.755ZM504.635 19V0.119999H508.475V19H504.635ZM509.438 19V0.119999H510.398V19H509.438ZM511.358 19V0.119999H513.278V19H511.358ZM515.198 19V0.119999H516.158V19H515.198ZM520 19V0.119999H520.96V19H520ZM521.92 19V0.119999H525.76V19H521.92ZM527.68 19V0.119999H528.64V19H527.68ZM530.562 19V0.119999H531.523V19H530.562ZM534.403 19V0.119999H538.243V19H534.403ZM539.203 19V0.119999H540.163V19H539.203ZM541.125 19V0.119999H542.085V19H541.125ZM544.005 19V0.119999H544.965V19H544.005ZM546.885 19V0.119999H550.725V19H546.885ZM551.688 19V0.119999H552.648V19H551.688ZM554.568 19V0.119999H558.408V19H554.568ZM559.368 19V0.119999H560.328V19H559.368ZM562.25 19V0.119999H564.17V19H562.25ZM565.13 19V0.119999H567.05V19H565.13ZM568.97 19V0.119999H570.89V19H568.97ZM572.812 19V0.119999H573.773V19H572.812ZM575.693 19V0.119999H579.533V19H575.693ZM580.493 19V0.119999H581.453V19H580.493ZM583.375 19V0.119999H584.335V19H583.375ZM587.215 19V0.119999H591.055V19H587.215ZM592.015 19V0.119999H592.975V19H592.015ZM593.938 19V0.119999H595.858V19H593.938ZM596.818 19V0.119999H598.738V19H596.818ZM600.658 19V0.119999H602.578V19H600.658ZM604.5 19V0.119999H605.46V19H604.5ZM607.38 19V0.119999H611.22V19H607.38ZM612.18 19V0.119999H613.14V19H612.18ZM615.062 19V0.119999H616.023V19H615.062ZM617.943 19V0.119999H619.863V19H617.943ZM623.703 19V0.119999H624.663V19H623.703ZM625.625 19V0.119999H626.585V19H625.625ZM628.505 19V0.119999H629.465V19H628.505ZM631.385 19V0.119999H635.225V19H631.385ZM636.188 19V0.119999H637.148V19H636.188ZM640.028 19V0.119999H643.868V19H640.028ZM644.828 19V0.119999H645.788V19H644.828ZM646.75 19V0.119999H650.59V19H646.75ZM652.51 19V0.119999H653.47V19H652.51ZM654.43 19V0.119999H655.39V19H654.43ZM657.312 19V0.119999H658.273V19H657.312ZM662.113 19V0.119999H664.033V19H662.113ZM664.993 19V0.119999H665.953V19H664.993ZM667.875 19V0.119999H669.795V19H667.875ZM673.635 19V0.119999H674.595V19H673.635ZM675.555 19V0.119999H676.515V19H675.555ZM678.438 19V0.119999H679.398V19H678.438ZM681.318 19V0.119999H683.238V19H681.318ZM684.198 19V0.119999H685.158V19H684.198ZM689 19V0.119999H690.92V19H689ZM691.88 19V0.119999H693.8V19H691.88ZM695.72 19V0.119999H697.64V19H695.72ZM699.562 19V0.119999H700.523V19H699.562ZM702.443 19V0.119999H703.403V19H702.443ZM707.243 19V0.119999H709.163V19H707.243ZM710.125 19V0.119999H711.085V19H710.125ZM713.005 19V0.119999H713.965V19H713.005ZM715.885 19V0.119999H719.725V19H715.885ZM720.688 19V0.119999H721.648V19H720.688ZM725.488 19V0.119999H727.408V19H725.488ZM728.368 19V0.119999H729.328V19H728.368ZM731.25 19V0.119999H732.21V19H731.25ZM736.05 19V0.119999H737.01V19H736.05ZM737.97 19V0.119999H739.89V19H737.97ZM741.812 19V0.119999H743.733V19H741.812ZM747.573 19V0.119999H748.533V19H747.573ZM750.453 19V0.119999H751.413V19H750.453ZM752.375 19V0.119999H753.335V19H752.375ZM754.295 19V0.119999H758.135V19H754.295ZM760.055 19V0.119999H761.015V19H760.055ZM762.938 19V0.119999H764.858V19H762.938ZM765.818 19V0.119999H767.738V19H765.818ZM769.658 19V0.119999H771.578V19H769.658ZM773.5 19V0.119999H774.46V19H773.5ZM778.3 19V0.119999H780.22V19H778.3ZM781.18 19V0.119999H782.14V19H781.18ZM784.062 19V0.119999H785.983V19H784.062ZM789.823 19V0.119999H790.783V19H789.823ZM791.743 19V0.119999H792.703V19H791.743ZM794.625 19V0.119999H796.545V19H794.625ZM797.505 19V0.119999H799.425V19H797.505ZM801.345 19V0.119999H803.265V19H801.345ZM805.188 19V0.119999H807.108V19H805.188ZM808.068 19V0.119999H809.988V19H808.068ZM810.948 19V0.119999H814.788V19H810.948ZM815.75 19V0.119999H816.71V19H815.75ZM819.59 19V0.119999H823.43V19H819.59ZM824.39 19V0.119999H825.35V19H824.39ZM826.312 19V0.119999H827.273V19H826.312ZM829.193 19V0.119999H833.033V19H829.193ZM834.953 19V0.119999H835.913V19H834.953ZM836.875 19V0.119999H837.835V19H836.875ZM839.755 19V0.119999H840.715V19H839.755ZM842.635 19V0.119999H846.475V19H842.635ZM847.438 19V0.119999H849.358V19H847.438ZM850.318 19V0.119999H852.238V19H850.318ZM854.158 19V0.119999H856.078V19H854.158ZM858 19V0.119999H858.96V19H858ZM862.8 19V0.119999H863.76V19H862.8ZM865.68 19V0.119999H867.6V19H865.68ZM868.562 19V0.119999H869.523V19H868.562ZM873.363 19V0.119999H875.283V19H873.363ZM876.243 19V0.119999H877.203V19H876.243ZM879.125 19V0.119999H880.085V19H879.125ZM882.005 19V0.119999H882.965V19H882.005ZM884.885 19V0.119999H888.725V19H884.885ZM889.688 19V0.119999H890.648V19H889.688ZM891.608 19V0.119999H893.528V19H891.608ZM895.448 19V0.119999H896.408V19H895.448ZM900.25 19V0.119999H901.21V19H900.25ZM905.05 19V0.119999H906.01V19H905.05ZM906.97 19V0.119999H908.89V19H906.97ZM910.812 19V0.119999H911.773V19H910.812ZM913.693 19V0.119999H917.533V19H913.693ZM918.493 19V0.119999H919.453V19H918.493ZM921.375 19V0.119999H922.335V19H921.375ZM926.175 19V0.119999H928.095V19H926.175ZM929.055 19V0.119999H930.015V19H929.055ZM931.938 19V0.119999H932.898V19H931.938ZM935.778 19V0.119999H939.618V19H935.778ZM940.578 19V0.119999H941.538V19H940.578ZM942.5 19V0.119999H944.42V19H942.5ZM948.26 19V0.119999H949.22V19H948.26ZM950.18 19V0.119999H951.14V19H950.18ZM953.062 19V0.119999H954.023V19H953.062ZM954.983 19V0.119999H956.903V19H954.983ZM958.823 19V0.119999H961.703V19H958.823ZM963.625 19V0.119999H965.545V19H963.625ZM966.505 19V0.119999H968.425V19H966.505ZM970.345 19V0.119999H972.265V19H970.345ZM974.188 19V0.119999H975.148V19H974.188ZM978.988 19V0.119999H979.948V19H978.988ZM981.868 19V0.119999H983.788V19H981.868ZM984.75 19V0.119999H985.71V19H984.75ZM987.63 19V0.119999H988.59V19H987.63ZM989.55 19V0.119999H991.47V19H989.55ZM995.312 19V0.119999H999.153V19H995.312ZM1000.11 19V0.119999H1002.99V19H1000.11ZM1003.95 19V0.119999H1004.91V19H1003.95ZM1005.88 19V0.119999H1007.8V19H1005.88ZM1011.64 19V0.119999H1012.6V19H1011.64ZM1013.56 19V0.119999H1014.52V19H1013.56ZM1016.44 19V0.119999H1018.36V19H1016.44ZM1019.32 19V0.119999H1021.24V19H1019.32ZM1023.16 19V0.119999H1025.08V19H1023.16ZM1027 19V0.119999H1027.96V19H1027ZM1031.8 19V0.119999H1033.72V19H1031.8ZM1034.68 19V0.119999H1035.64V19H1034.68ZM1037.56 19V0.119999H1038.52V19H1037.56ZM1040.44 19V0.119999H1044.28V19H1040.44ZM1045.24 19V0.119999H1046.2V19H1045.24ZM1048.12 19V0.119999H1050.05V19H1048.12ZM1051.97 19V0.119999H1053.89V19H1051.97ZM1054.85 19V0.119999H1056.77V19H1054.85ZM1058.69 19V0.119999H1060.61V19H1058.69ZM1061.57 19V0.119999H1063.49V19H1061.57ZM1065.41 19V0.119999H1067.33V19H1065.41ZM1069.25 19V0.119999H1072.13V19H1069.25ZM1073.09 19V0.119999H1074.05V19H1073.09ZM1076.93 19V0.119999H1078.85V19H1076.93ZM1079.81 19V0.119999H1080.77V19H1079.81ZM1082.69 19V0.119999H1084.61V19H1082.69ZM1088.45 19V0.119999H1089.41V19H1088.45ZM1090.38 19V0.119999H1091.34V19H1090.38ZM1093.26 19V0.119999H1094.22V19H1093.26ZM1095.18 19V0.119999H1097.1V19H1095.18ZM1100.94 19V0.119999H1101.9V19H1100.94ZM1103.82 19V0.119999H1107.66V19H1103.82ZM1108.62 19V0.119999H1109.58V19H1108.62ZM1111.5 19V0.119999H1113.42V19H1111.5ZM1114.38 19V0.119999H1116.3V19H1114.38ZM1118.22 19V0.119999H1120.14V19H1118.22ZM1122.06 19V0.119999H1123.02V19H1122.06ZM1124.94 19V0.119999H1125.9V19H1124.94ZM1129.74 19V0.119999H1131.66V19H1129.74ZM1132.62 19V0.119999H1133.59V19H1132.62ZM1135.51 19V0.119999H1136.47V19H1135.51ZM1137.43 19V0.119999H1139.35V19H1137.43ZM1143.19 19V0.119999H1144.15V19H1143.19ZM1147.99 19V0.119999H1148.95V19H1147.99ZM1150.87 19V0.119999H1152.79V19H1150.87ZM1153.75 19V0.119999H1155.67V19H1153.75ZM1156.63 19V0.119999H1158.55V19H1156.63ZM1160.47 19V0.119999H1162.39V19H1160.47ZM1164.31 19V0.119999H1165.27V19H1164.31ZM1166.23 19V0.119999H1167.19V19H1166.23ZM1169.11 19V0.119999H1172.95V19H1169.11ZM1174.88 19V0.119999H1175.84V19H1174.88ZM1176.8 19V0.119999H1178.72V19H1176.8ZM1180.64 19V0.119999H1181.6V19H1180.64ZM1185.44 19V0.119999H1186.4V19H1185.44ZM1189.28 19V0.119999H1193.12V19H1189.28ZM1194.08 19V0.119999H1195.04V19H1194.08ZM1196 19V0.119999H1196.96V19H1196ZM1197.92 19V0.119999H1198.88V19H1197.92ZM1200.8 19V0.119999H1204.64V19H1200.8ZM1206.56 19V0.119999H1208.48V19H1206.56ZM1210.4 19V0.119999H1211.36V19H1210.4ZM1212.32 19V0.119999H1213.28V19H1212.32ZM1217.12 19V0.119999H1218.09V19H1217.12ZM1219.05 19V0.119999H1220.97V19H1219.05ZM1222.89 19V0.119999H1223.85V19H1222.89ZM1227.69 19V0.119999H1229.61V19H1227.69ZM1230.57 19V0.119999H1232.49V19H1230.57ZM1234.41 19V0.119999H1236.33V19H1234.41ZM1238.25 19V0.119999H1240.17V19H1238.25ZM1241.13 19V0.119999H1243.05V19H1241.13ZM1244.01 19V0.119999H1247.85V19H1244.01ZM1248.81 19V0.119999H1249.77V19H1248.81ZM1252.65 19V0.119999H1256.49V19H1252.65ZM1257.45 19V0.119999H1258.41V19H1257.45ZM1259.38 19V0.119999H1260.34V19H1259.38ZM1262.26 19V0.119999H1266.1V19H1262.26ZM1268.02 19V0.119999H1268.98V19H1268.02ZM1269.94 19V0.119999H1271.86V19H1269.94ZM1272.82 19V0.119999H1274.74V19H1272.82ZM1276.66 19V0.119999H1278.58V19H1276.66ZM1280.5 19V0.119999H1281.46V19H1280.5ZM1283.38 19V0.119999H1284.34V19H1283.38ZM1285.3 19V0.119999H1287.22V19H1285.3ZM1291.06 19V0.119999H1292.02V19H1291.06ZM1293.94 19V0.119999H1294.9V19H1293.94ZM1296.82 19V0.119999H1300.66V19H1296.82ZM1301.62 19V0.119999H1302.59V19H1301.62ZM1303.55 19V0.119999H1305.47V19H1303.55ZM1307.39 19V0.119999H1308.35V19H1307.39ZM1312.19 19V0.119999H1314.11V19H1312.19ZM1316.03 19V0.119999H1317.95V19H1316.03ZM1318.91 19V0.119999H1320.83V19H1318.91ZM1322.75 19V0.119999H1324.67V19H1322.75ZM1325.63 19V0.119999H1327.55V19H1325.63ZM1329.47 19V0.119999H1331.39V19H1329.47ZM1333.31 19V0.119999H1334.27V19H1333.31ZM1335.23 19V0.119999H1336.19V19H1335.23ZM1339.07 19V0.119999H1340.99V19H1339.07ZM1343.88 19V0.119999H1345.8V19H1343.88ZM1347.72 19V0.119999H1348.68V19H1347.72ZM1349.64 19V0.119999H1350.6V19H1349.64ZM1354.44 19V0.119999H1356.36V19H1354.44ZM1358.28 19V0.119999H1359.24V19H1358.28ZM1360.2 19V0.119999H1361.16V19H1360.2ZM1365 19V0.119999H1366.92V19H1365ZM1367.88 19V0.119999H1369.8V19H1367.88ZM1371.72 19V0.119999H1373.64V19H1371.72ZM1375.56 19V0.119999H1377.48V19H1375.56ZM1378.44 19V0.119999H1380.36V19H1378.44ZM1381.32 19V0.119999H1385.16V19H1381.32ZM1386.12 19V0.119999H1387.09V19H1386.12ZM1389.97 19V0.119999H1393.81V19H1389.97ZM1394.77 19V0.119999H1395.73V19H1394.77ZM1396.69 19V0.119999H1397.65V19H1396.69ZM1399.57 19V0.119999H1403.41V19H1399.57ZM1405.33 19V0.119999H1406.29V19H1405.33ZM1407.25 19V0.119999H1409.17V19H1407.25ZM1410.13 19V0.119999H1412.05V19H1410.13ZM1413.97 19V0.119999H1415.89V19H1413.97ZM1417.81 19V0.119999H1418.77V19H1417.81ZM1422.61 19V0.119999H1423.57V19H1422.61ZM1425.49 19V0.119999H1427.41V19H1425.49ZM1428.38 19V0.119999H1429.34V19H1428.38ZM1432.22 19V0.119999H1436.06V19H1432.22ZM1437.02 19V0.119999H1437.98V19H1437.02ZM1438.94 19V0.119999H1440.86V19H1438.94ZM1441.82 19V0.119999H1443.74V19H1441.82ZM1445.66 19V0.119999H1447.58V19H1445.66ZM1449.5 19V0.119999H1450.46V19H1449.5ZM1454.3 19V0.119999H1456.22V19H1454.3ZM1457.18 19V0.119999H1458.14V19H1457.18ZM1460.06 19V0.119999H1461.02V19H1460.06ZM1461.98 19V0.119999H1465.82V19H1461.98ZM1467.74 19V0.119999H1468.7V19H1467.74ZM1470.62 19V0.119999H1472.55V19H1470.62ZM1473.51 19V0.119999H1475.43V19H1473.51ZM1477.35 19V0.119999H1479.27V19H1477.35ZM1481.19 19V0.119999H1482.15V19H1481.19ZM1484.07 19V0.119999H1487.91V19H1484.07ZM1488.87 19V0.119999H1489.83V19H1488.87ZM1491.75 19V0.119999H1492.71V19H1491.75ZM1494.63 19V0.119999H1495.59V19H1494.63ZM1496.55 19V0.119999H1498.47V19H1496.55ZM1502.31 19V0.119999H1504.23V19H1502.31ZM1506.15 19V0.119999H1507.11V19H1506.15ZM1508.07 19V0.119999H1509.03V19H1508.07ZM1512.88 19V0.119999H1514.8V19H1512.88ZM1518.64 19V0.119999H1519.6V19H1518.64ZM1521.52 19V0.119999H1522.48V19H1521.52ZM1523.44 19V0.119999H1524.4V19H1523.44ZM1525.36 19V0.119999H1527.28V19H1525.36ZM1529.2 19V0.119999H1532.08V19H1529.2ZM1534 19V0.119999H1535.92V19H1534ZM1536.88 19V0.119999H1538.8V19H1536.88ZM1540.72 19V0.119999H1542.64V19H1540.72ZM1544.56 19V0.119999H1545.52V19H1544.56ZM1547.44 19V0.119999H1551.28V19H1547.44ZM1552.24 19V0.119999H1553.2V19H1552.24ZM1555.12 19V0.119999H1556.09V19H1555.12ZM1558.01 19V0.119999H1558.97V19H1558.01ZM1559.93 19V0.119999H1561.85V19H1559.93ZM1565.69 19V0.119999H1567.61V19H1565.69ZM1569.53 19V0.119999H1570.49V19H1569.53ZM1571.45 19V0.119999H1572.41V19H1571.45ZM1576.25 19V0.119999H1578.17V19H1576.25ZM1582.01 19V0.119999H1582.97V19H1582.01ZM1584.89 19V0.119999H1585.85V19H1584.89ZM1586.81 19V0.119999H1587.77V19H1586.81ZM1588.73 19V0.119999H1590.65V19H1588.73ZM1592.57 19V0.119999H1595.45V19H1592.57ZM1597.38 19V0.119999H1599.3V19H1597.38ZM1600.26 19V0.119999H1602.18V19H1600.26ZM1604.1 19V0.119999H1606.02V19H1604.1ZM1607.94 19V0.119999H1608.9V19H1607.94ZM1610.82 19V0.119999H1614.66V19H1610.82ZM1615.62 19V0.119999H1616.58V19H1615.62ZM1618.5 19V0.119999H1619.46V19H1618.5ZM1621.38 19V0.119999H1622.34V19H1621.38ZM1623.3 19V0.119999H1625.22V19H1623.3ZM1629.06 19V0.119999H1630.98V19H1629.06ZM1632.9 19V0.119999H1633.86V19H1632.9ZM1634.82 19V0.119999H1635.78V19H1634.82ZM1639.62 19V0.119999H1641.55V19H1639.62ZM1645.39 19V0.119999H1646.35V19H1645.39ZM1648.27 19V0.119999H1649.23V19H1648.27ZM1650.19 19V0.119999H1651.15V19H1650.19ZM1652.11 19V0.119999H1654.03V19H1652.11ZM1655.95 19V0.119999H1658.83V19H1655.95ZM1660.75 19V0.119999H1662.67V19H1660.75ZM1663.63 19V0.119999H1665.55V19H1663.63ZM1667.47 19V0.119999H1669.39V19H1667.47ZM1671.31 19V0.119999H1672.27V19H1671.31ZM1674.19 19V0.119999H1678.03V19H1674.19ZM1678.99 19V0.119999H1679.95V19H1678.99ZM1681.88 19V0.119999H1682.84V19H1681.88ZM1684.76 19V0.119999H1685.72V19H1684.76ZM1686.68 19V0.119999H1688.6V19H1686.68ZM1692.44 19V0.119999H1694.36V19H1692.44ZM1696.28 19V0.119999H1697.24V19H1696.28ZM1698.2 19V0.119999H1699.16V19H1698.2ZM1703 19V0.119999H1704.92V19H1703ZM1708.76 19V0.119999H1709.72V19H1708.76ZM1711.64 19V0.119999H1712.6V19H1711.64ZM1713.56 19V0.119999H1714.52V19H1713.56ZM1715.48 19V0.119999H1717.4V19H1715.48ZM1719.32 19V0.119999H1722.2V19H1719.32ZM1724.12 19V0.119999H1726.05V19H1724.12ZM1727.01 19V0.119999H1728.93V19H1727.01ZM1730.85 19V0.119999H1732.77V19H1730.85ZM1734.69 19V0.119999H1736.61V19H1734.69ZM1740.45 19V0.119999H1741.41V19H1740.45ZM1742.37 19V0.119999H1743.33V19H1742.37ZM1745.25 19V0.119999H1746.21V19H1745.25ZM1749.09 19V0.119999H1752.93V19H1749.09ZM1753.89 19V0.119999H1754.85V19H1753.89ZM1755.81 19V0.119999H1756.77V19H1755.81ZM1758.69 19V0.119999H1762.53V19H1758.69ZM1763.49 19V0.119999H1764.45V19H1763.49ZM1766.38 19V0.119999H1768.3V19H1766.38ZM1769.26 19V0.119999H1771.18V19H1769.26ZM1773.1 19V0.119999H1775.02V19H1773.1ZM1776.94 19V0.119999H1777.9V19H1776.94ZM1779.82 19V0.119999H1780.78V19H1779.82ZM1781.74 19V0.119999H1783.66V19H1781.74ZM1787.5 19V0.119999H1789.42V19H1787.5ZM1790.38 19V0.119999H1792.3V19H1790.38ZM1794.22 19V0.119999H1796.14V19H1794.22ZM1798.06 19V0.119999H1799.98V19H1798.06ZM1801.9 19V0.119999H1802.86V19H1801.9ZM1803.82 19V0.119999H1804.78V19H1803.82ZM1808.62 19V0.119999H1809.59V19H1808.62ZM1810.55 19V0.119999H1812.47V19H1810.55ZM1814.39 19V0.119999H1815.35V19H1814.39ZM1819.19 19V0.119999H1820.15V19H1819.19ZM1821.11 19V0.119999H1824.95V19H1821.11ZM1826.87 19V0.119999H1827.83V19H1826.87ZM1829.75 19V0.119999H1830.71V19H1829.75ZM1831.67 19V0.119999H1835.51V19H1831.67ZM1837.43 19V0.119999H1838.39V19H1837.43ZM1840.31 19V0.119999H1841.27V19H1840.31ZM1844.15 19V0.119999H1847.99V19H1844.15ZM1848.95 19V0.119999H1849.91V19H1848.95ZM1850.88 19V0.119999H1852.8V19H1850.88ZM1856.64 19V0.119999H1857.6V19H1856.64ZM1858.56 19V0.119999H1859.52V19H1858.56ZM1861.44 19V0.119999H1863.36V19H1861.44ZM1864.32 19V0.119999H1866.24V19H1864.32ZM1868.16 19V0.119999H1870.08V19H1868.16ZM1872 19V0.119999H1872.96V19H1872ZM1874.88 19V0.119999H1876.8V19H1874.88ZM1877.76 19V0.119999H1878.72V19H1877.76ZM1882.56 19V0.119999H1883.52V19H1882.56ZM1886.4 19V0.119999H1890.24V19H1886.4ZM1891.2 19V0.119999H1892.16V19H1891.2ZM1893.12 19V0.119999H1894.09V19H1893.12ZM1895.05 19V0.119999H1896.97V19H1895.05ZM1898.89 19V0.119999H1899.85V19H1898.89ZM1903.69 19V0.119999H1904.65V19H1903.69ZM1905.61 19V0.119999H1909.45V19H1905.61ZM1911.37 19V0.119999H1912.33V19H1911.37ZM1914.25 19V0.119999H1916.17V19H1914.25ZM1917.13 19V0.119999H1919.05V19H1917.13ZM1920.97 19V0.119999H1922.89V19H1920.97ZM1924.81 19V0.119999H1925.77V19H1924.81ZM1927.69 19V0.119999H1928.65V19H1927.69ZM1932.49 19V0.119999H1934.41V19H1932.49ZM1935.38 19V0.119999H1937.3V19H1935.38ZM1938.26 19V0.119999H1940.18V19H1938.26ZM1941.14 19V0.119999H1944.98V19H1941.14ZM1945.94 19V0.119999H1947.86V19H1945.94ZM1948.82 19V0.119999H1950.74V19H1948.82ZM1952.66 19V0.119999H1954.58V19H1952.66ZM1956.5 19V0.119999H1960.34V19H1956.5ZM1962.26 19V0.119999H1963.22V19H1962.26ZM1964.18 19V0.119999H1965.14V19H1964.18ZM1967.06 19V0.119999H1968.02V19H1967.06ZM1971.86 19V0.119999H1973.78V19H1971.86ZM1974.74 19V0.119999H1975.7V19H1974.74ZM1977.62 19V0.119999H1978.59V19H1977.62ZM1980.51 19V0.119999H1984.35V19H1980.51ZM1985.31 19V0.119999H1986.27V19H1985.31ZM1988.19 19V0.119999H1989.15V19H1988.19ZM1991.07 19V0.119999H1992.99V19H1991.07ZM1996.83 19V0.119999H1997.79V19H1996.83ZM1998.75 19V0.119999H1999.71V19H1998.75ZM2002.59 19V0.119999H2006.43V19H2002.59ZM2007.39 19V0.119999H2008.35V19H2007.39ZM2009.31 19V0.119999H2010.27V19H2009.31ZM2012.19 19V0.119999H2016.03V19H2012.19ZM2017.95 19V0.119999H2018.91V19H2017.95ZM2019.88 19V0.119999H2020.84V19H2019.88ZM2022.76 19V0.119999H2026.6V19H2022.76ZM2027.56 19V0.119999H2028.52V19H2027.56ZM2030.44 19V0.119999H2032.36V19H2030.44ZM2033.32 19V0.119999H2035.24V19H2033.32ZM2037.16 19V0.119999H2039.08V19H2037.16ZM2041 19V0.119999H2042.92V19H2041ZM2043.88 19V0.119999H2045.8V19H2043.88ZM2046.76 19V0.119999H2050.6V19H2046.76ZM2051.56 19V0.119999H2052.52V19H2051.56ZM2055.4 19V0.119999H2059.24V19H2055.4ZM2060.2 19V0.119999H2061.16V19H2060.2ZM2062.12 19V0.119999H2063.09V19H2062.12ZM2065.01 19V0.119999H2068.85V19H2065.01ZM2070.77 19V0.119999H2071.73V19H2070.77ZM2072.69 19V0.119999H2074.61V19H2072.69ZM2075.57 19V0.119999H2077.49V19H2075.57ZM2079.41 19V0.119999H2081.33V19H2079.41ZM2083.25 19V0.119999H2084.21V19H2083.25ZM2086.13 19V0.119999H2089.97V19H2086.13ZM2090.93 19V0.119999H2091.89V19H2090.93ZM2093.81 19V0.119999H2094.77V19H2093.81ZM2096.69 19V0.119999H2097.65V19H2096.69ZM2098.61 19V0.119999H2100.53V19H2098.61ZM2104.38 19V0.119999H2106.3V19H2104.38ZM2108.22 19V0.119999H2109.18V19H2108.22ZM2110.14 19V0.119999H2111.1V19H2110.14ZM2114.94 19V0.119999H2116.86V19H2114.94ZM2120.7 19V0.119999H2121.66V19H2120.7ZM2123.58 19V0.119999H2124.54V19H2123.58ZM2125.5 19V0.119999H2126.46V19H2125.5ZM2130.3 19V0.119999H2132.22V19H2130.3ZM2133.18 19V0.119999H2134.14V19H2133.18ZM2136.06 19V0.119999H2137.98V19H2136.06ZM2141.82 19V0.119999H2142.78V19H2141.82ZM2143.74 19V0.119999H2144.7V19H2143.74ZM2146.62 19V0.119999H2147.59V19H2146.62ZM2149.51 19V0.119999H2151.43V19H2149.51ZM2152.39 19V0.119999H2153.35V19H2152.39ZM2157.19 19V0.119999H2159.11V19H2157.19ZM2161.03 19V0.119999H2162.95V19H2161.03ZM2163.91 19V0.119999H2165.83V19H2163.91ZM2167.75 19V0.119999H2169.67V19H2167.75ZM2170.63 19V0.119999H2172.55V19H2170.63ZM2174.47 19V0.119999H2176.39V19H2174.47ZM2178.31 19V0.119999H2181.19V19H2178.31ZM2182.15 19V0.119999H2184.07V19H2182.15ZM2185.03 19V0.119999H2185.99V19H2185.03ZM2188.88 19V0.119999H2189.84V19H2188.88ZM2192.72 19V0.119999H2196.56V19H2192.72ZM2197.52 19V0.119999H2198.48V19H2197.52ZM2199.44 19V0.119999H2200.4V19H2199.44ZM2202.32 19V0.119999H2206.16V19H2202.32ZM2208.08 19V0.119999H2209.04V19H2208.08ZM2210 19V0.119999H2211.92V19H2210ZM2212.88 19V0.119999H2214.8V19H2212.88ZM2216.72 19V0.119999H2218.64V19H2216.72ZM2220.56 19V0.119999H2221.52V19H2220.56ZM2223.44 19V0.119999H2225.36V19H2223.44ZM2229.2 19V0.119999H2230.16V19H2229.2ZM2231.12 19V0.119999H2232.09V19H2231.12ZM2234.01 19V0.119999H2234.97V19H2234.01ZM2235.93 19V0.119999H2237.85V19H2235.93ZM2241.69 19V0.119999H2245.53V19H2241.69ZM2246.49 19V0.119999H2247.45V19H2246.49ZM2249.37 19V0.119999H2250.33V19H2249.37ZM2252.25 19V0.119999H2253.21V19H2252.25ZM2254.17 19V0.119999H2256.09V19H2254.17ZM2258.01 19V0.119999H2258.97V19H2258.01ZM2262.81 19V0.119999H2264.73V19H2262.81ZM2265.69 19V0.119999H2267.61V19H2265.69ZM2269.53 19V0.119999H2271.45V19H2269.53ZM2273.38 19V0.119999H2274.34V19H2273.38ZM2276.26 19V0.119999H2277.22V19H2276.26ZM2281.06 19V0.119999H2282.98V19H2281.06ZM2283.94 19V0.119999H2284.9V19H2283.94ZM2285.86 19V0.119999H2287.78V19H2285.86ZM2289.7 19V0.119999H2290.66V19H2289.7ZM2294.5 19V0.119999H2295.46V19H2294.5ZM2296.42 19V0.119999H2298.34V19H2296.42ZM2300.26 19V0.119999H2301.22V19H2300.26ZM2305.06 19V0.119999H2306.98V19H2305.06ZM2310.82 19V0.119999H2311.78V19H2310.82ZM2312.74 19V0.119999H2313.7V19H2312.74ZM2315.62 19V0.119999H2317.55V19H2315.62ZM2318.51 19V0.119999H2320.43V19H2318.51ZM2322.35 19V0.119999H2324.27V19H2322.35ZM2326.19 19V0.119999H2327.15V19H2326.19ZM2328.11 19V0.119999H2331.95V19H2328.11ZM2333.87 19V0.119999H2334.83V19H2333.87ZM2336.75 19V0.119999H2337.71V19H2336.75ZM2338.67 19V0.119999H2340.59V19H2338.67ZM2342.51 19V0.119999H2343.47V19H2342.51ZM2347.31 19V0.119999H2348.27V19H2347.31ZM2349.23 19V0.119999H2351.15V19H2349.23ZM2353.07 19V0.119999H2354.03V19H2353.07ZM2357.88 19V0.119999H2359.8V19H2357.88ZM2363.64 19V0.119999H2364.6V19H2363.64ZM2365.56 19V0.119999H2366.52V19H2365.56ZM2368.44 19V0.119999H2370.36V19H2368.44ZM2371.32 19V0.119999H2373.24V19H2371.32ZM2375.16 19V0.119999H2377.08V19H2375.16ZM2379 19V0.119999H2379.96V19H2379ZM2383.8 19V0.119999H2384.76V19H2383.8ZM2386.68 19V0.119999H2388.6V19H2386.68ZM2389.56 19V0.119999H2390.52V19H2389.56ZM2393.4 19V0.119999H2397.24V19H2393.4ZM2398.2 19V0.119999H2399.16V19H2398.2ZM2400.12 19V0.119999H2401.09V19H2400.12ZM2404.93 19V0.119999H2406.85V19H2404.93ZM2407.81 19V0.119999H2408.77V19H2407.81ZM2410.69 19V0.119999H2412.61V19H2410.69ZM2416.45 19V0.119999H2417.41V19H2416.45ZM2418.37 19V0.119999H2419.33V19H2418.37ZM2421.25 19V0.119999H2422.21V19H2421.25ZM2424.13 19V0.119999H2426.05V19H2424.13ZM2427.01 19V0.119999H2427.97V19H2427.01ZM2431.81 19V0.119999H2433.73V19H2431.81ZM2434.69 19V0.119999H2436.61V19H2434.69ZM2438.53 19V0.119999H2440.45V19H2438.53ZM2442.38 19V0.119999H2443.34V19H2442.38ZM2445.26 19V0.119999H2449.1V19H2445.26ZM2450.06 19V0.119999H2451.02V19H2450.06ZM2452.94 19V0.119999H2453.9V19H2452.94ZM2455.82 19V0.119999H2457.74V19H2455.82ZM2461.58 19V0.119999H2462.54V19H2461.58ZM2463.5 19V0.119999H2464.46V19H2463.5ZM2468.3 19V0.119999H2470.22V19H2468.3ZM2471.18 19V0.119999H2472.14V19H2471.18ZM2474.06 19V0.119999H2475.02V19H2474.06ZM2475.98 19V0.119999H2479.82V19H2475.98ZM2481.74 19V0.119999H2482.7V19H2481.74ZM2484.62 19V0.119999H2486.55V19H2484.62ZM2487.51 19V0.119999H2489.43V19H2487.51ZM2491.35 19V0.119999H2493.27V19H2491.35ZM2495.19 19V0.119999H2499.03V19H2495.19ZM2499.99 19V0.119999H2502.87V19H2499.99ZM2503.83 19V0.119999H2504.79V19H2503.83ZM2505.75 19V0.119999H2506.71V19H2505.75ZM2509.59 19V0.119999H2513.43V19H2509.59ZM2514.39 19V0.119999H2515.35V19H2514.39ZM2516.31 19V0.119999H2517.27V19H2516.31ZM2519.19 19V0.119999H2520.15V19H2519.19ZM2522.07 19V0.119999H2525.91V19H2522.07ZM2526.88 19V0.119999H2527.84V19H2526.88ZM2528.8 19V0.119999H2530.72V19H2528.8ZM2532.64 19V0.119999H2533.6V19H2532.64ZM2537.44 19V0.119999H2539.36V19H2537.44ZM2540.32 19V0.119999H2542.24V19H2540.32ZM2544.16 19V0.119999H2546.08V19H2544.16ZM2548 19V0.119999H2548.96V19H2548ZM2550.88 19V0.119999H2554.72V19H2550.88ZM2555.68 19V0.119999H2556.64V19H2555.68ZM2558.56 19V0.119999H2559.52V19H2558.56ZM2561.44 19V0.119999H2563.36V19H2561.44ZM2567.2 19V0.119999H2568.16V19H2567.2ZM2569.12 19V0.119999H2570.09V19H2569.12ZM2572.01 19V0.119999H2572.97V19H2572.01ZM2573.93 19V0.119999H2575.85V19H2573.93ZM2579.69 19V0.119999H2581.61V19H2579.69ZM2585.45 19V0.119999H2586.41V19H2585.45ZM2587.37 19V0.119999H2588.33V19H2587.37ZM2590.25 19V0.119999H2592.17V19H2590.25ZM2593.13 19V0.119999H2595.05V19H2593.13ZM2596.97 19V0.119999H2598.89V19H2596.97ZM2600.81 19V0.119999H2601.77V19H2600.81ZM2604.65 19V0.119999H2608.49V19H2604.65ZM2609.45 19V0.119999H2610.41V19H2609.45ZM2611.38 19V0.119999H2613.3V19H2611.38ZM2617.14 19V0.119999H2618.1V19H2617.14ZM2619.06 19V0.119999H2620.02V19H2619.06ZM2621.94 19V0.119999H2622.9V19H2621.94ZM2626.74 19V0.119999H2627.7V19H2626.74ZM2628.66 19V0.119999H2630.58V19H2628.66ZM2632.5 19V0.119999H2633.46V19H2632.5ZM2634.42 19V0.119999H2636.34V19H2634.42ZM2638.26 19V0.119999H2639.22V19H2638.26ZM2643.06 19V0.119999H2644.02V19H2643.06ZM2645.94 19V0.119999H2647.86V19H2645.94ZM2649.78 19V0.119999H2652.66V19H2649.78Z" fill="black"/>
</svg>
