<svg width="317" height="339" viewBox="0 0 317 339" fill="none" xmlns="http://www.w3.org/2000/svg">
<path d="M40.7028 23V0.599998H50.3028C50.9214 0.599998 51.4548 0.823999 51.9028 1.272C52.3508 1.72 52.5748 2.264 52.5748 2.904V20.696C52.5748 21.336 52.3508 21.88 51.9028 22.328C51.4548 22.776 50.9214 23 50.3028 23H40.7028ZM43.6788 20.024H48.4788C48.7774 20.024 49.0441 19.9173 49.2788 19.704C49.5134 19.4693 49.6308 19.192 49.6308 18.872V4.728C49.6308 4.408 49.5134 4.14133 49.2788 3.928C49.0441 3.69333 48.7774 3.576 48.4788 3.576H43.6788V20.024ZM54.9528 23V0.599998H66.8568V3.544H57.9288V9.112H63.8808L63.2088 12.088H57.9288V20.024H66.8568V23H54.9528ZM72.6493 23L68.2653 0.599998H71.2413L74.2173 15.736L77.1933 0.599998H80.1693L75.7533 23H72.6493ZM87.2638 23V0.567999H95.3918C96.0531 0.567999 96.6078 0.802666 97.0558 1.272C97.5038 1.72 97.7278 2.25333 97.7278 2.872V9.24C98.1544 9.38933 98.5064 9.66667 98.7838 10.072C99.0611 10.4773 99.1998 10.9147 99.1998 11.384V20.664C99.1998 21.3253 98.9758 21.88 98.5278 22.328C98.0798 22.776 97.5358 23 96.8958 23H87.2638ZM90.2718 9.112H93.5677C93.8878 9.112 94.1651 8.99467 94.3998 8.76C94.6344 8.52533 94.7517 8.25867 94.7517 7.96V4.696C94.7517 4.376 94.6344 4.10933 94.3998 3.896C94.1651 3.66133 93.8878 3.544 93.5677 3.544H90.2718V9.112ZM90.2718 20.024H95.1038C95.4024 20.024 95.6584 19.9173 95.8718 19.704C96.1064 19.4693 96.2238 19.1813 96.2238 18.84V13.208C96.2238 12.9093 96.1064 12.6427 95.8718 12.408C95.6584 12.1733 95.4024 12.056 95.1038 12.056H90.2718V20.024ZM103.163 23C102.523 23 101.979 22.776 101.531 22.328C101.083 21.88 100.859 21.336 100.859 20.696V0.599998H103.835V18.904C103.835 19.2027 103.942 19.4693 104.155 19.704C104.39 19.9173 104.667 20.024 104.987 20.024H108.603C108.923 20.024 109.19 19.9173 109.403 19.704C109.638 19.4693 109.755 19.2027 109.755 18.904V0.599998H112.731V20.696C112.731 21.336 112.507 21.88 112.059 22.328C111.611 22.776 111.067 23 110.427 23H103.163ZM115.422 23V0.599998H118.398V23H115.422ZM120.765 23V0.599998H123.741V20.024H131.389V23H120.765ZM132.984 23V0.599998H142.584C143.203 0.599998 143.736 0.823999 144.184 1.272C144.632 1.72 144.856 2.264 144.856 2.904V20.696C144.856 21.336 144.632 21.88 144.184 22.328C143.736 22.776 143.203 23 142.584 23H132.984ZM135.96 20.024H140.76C141.059 20.024 141.325 19.9173 141.56 19.704C141.795 19.4693 141.912 19.192 141.912 18.872V4.728C141.912 4.408 141.795 4.14133 141.56 3.928C141.325 3.69333 141.059 3.576 140.76 3.576H135.96V20.024ZM155.431 23L151.047 0.599998H154.023L156.999 15.736L159.975 0.599998H162.951L158.535 23H155.431ZM169.585 23V3.576H166.609L167.281 0.599998H172.561V23H169.585ZM177.882 23C177.242 23 176.698 22.776 176.25 22.328C175.802 21.88 175.578 21.336 175.578 20.696V2.904C175.578 2.264 175.802 1.72 176.25 1.272C176.698 0.823999 177.242 0.599998 177.882 0.599998H185.146C185.786 0.599998 186.33 0.823999 186.778 1.272C187.226 1.72 187.45 2.264 187.45 2.904V20.696C187.45 21.336 187.226 21.88 186.778 22.328C186.33 22.776 185.786 23 185.146 23H177.882ZM179.706 20.024H183.322C183.642 20.024 183.908 19.9173 184.122 19.704C184.356 19.4693 184.474 19.192 184.474 18.872V4.728C184.474 4.408 184.356 4.14133 184.122 3.928C183.908 3.69333 183.642 3.576 183.322 3.576H179.706C179.386 3.576 179.108 3.69333 178.874 3.928C178.66 4.14133 178.554 4.408 178.554 4.728V18.872C178.554 19.192 178.66 19.4693 178.874 19.704C179.108 19.9173 179.386 20.024 179.706 20.024ZM192.491 23V3.576H189.515L190.187 0.599998H195.467V23H192.491ZM208.014 23V15.064H199.118V12.088L208.014 0.599998H210.99V12.088H211.918L212.622 15.064H210.99V23H208.014ZM202.862 12.088H208.014V5.464L202.862 12.088ZM218.225 23C217.606 23 217.073 22.776 216.625 22.328C216.177 21.88 215.953 21.3467 215.953 20.728V16.504L218.929 17.24V18.872C218.929 19.192 219.035 19.4693 219.249 19.704C219.483 19.9173 219.761 20.024 220.081 20.024H223.697C224.017 20.024 224.283 19.9173 224.497 19.704C224.731 19.4693 224.849 19.192 224.849 18.872V13.272C224.849 12.952 224.731 12.6853 224.497 12.472C224.283 12.2373 224.017 12.12 223.697 12.12H218.225C217.606 12.12 217.073 11.896 216.625 11.448C216.177 11 215.953 10.456 215.953 9.816V0.599998H227.825V3.576H218.929V7.992C218.929 8.312 219.035 8.58933 219.249 8.824C219.483 9.03733 219.761 9.144 220.081 9.144H225.553C226.171 9.144 226.705 9.368 227.153 9.816C227.601 10.264 227.825 10.7973 227.825 11.416V20.728C227.825 21.3467 227.601 21.88 227.153 22.328C226.705 22.776 226.171 23 225.553 23H218.225ZM230.468 23V19.992H233.476V23H230.468ZM239.006 23C238.387 23 237.854 22.776 237.406 22.328C236.958 21.88 236.734 21.3467 236.734 20.728V16.504L239.71 17.24V18.872C239.71 19.192 239.817 19.4693 240.03 19.704C240.265 19.9173 240.542 20.024 240.862 20.024H244.478C244.798 20.024 245.065 19.9173 245.278 19.704C245.513 19.4693 245.63 19.192 245.63 18.872V13.272C245.63 12.952 245.513 12.6853 245.278 12.472C245.065 12.2373 244.798 12.12 244.478 12.12H239.006C238.387 12.12 237.854 11.896 237.406 11.448C236.958 11 236.734 10.456 236.734 9.816V0.599998H248.606V3.576H239.71V7.992C239.71 8.312 239.817 8.58933 240.03 8.824C240.265 9.03733 240.542 9.144 240.862 9.144H246.334C246.953 9.144 247.486 9.368 247.934 9.816C248.382 10.264 248.606 10.7973 248.606 11.416V20.728C248.606 21.3467 248.382 21.88 247.934 22.328C247.486 22.776 246.953 23 246.334 23H239.006ZM252.265 23L260.009 3.576H252.265V0.599998H264.169L255.241 23H252.265ZM264.218 23V19.992H267.226V23H264.218ZM270.26 23L274.708 11.8L270.26 0.599998H273.236L276.212 8.056L279.188 0.599998H282.132L277.684 11.8L282.132 23H279.188L276.212 15.544L273.236 23H270.26ZM290.274 23L285.89 0.599998H288.866L291.842 15.736L294.818 0.599998H297.794L293.378 23H290.274ZM300.172 23V0.599998H303.148V23H300.172ZM305.515 23V0.599998H308.491V20.024H316.139V23H305.515ZM46.6943 58C46.0969 58 45.5636 57.776 45.0943 57.328C44.6249 56.88 44.3903 56.336 44.3903 55.696V37.904C44.3903 37.2853 44.6249 36.752 45.0943 36.304C45.5636 35.8347 46.0969 35.6 46.6943 35.6H53.9583C54.6196 35.6 55.1636 35.8347 55.5903 36.304C56.0383 36.752 56.2623 37.2853 56.2623 37.904V42.064L53.2863 42.736V39.728C53.2863 39.4293 53.1796 39.1627 52.9663 38.928C52.7743 38.6933 52.5076 38.576 52.1663 38.576H48.5183C48.2196 38.576 47.9529 38.6933 47.7183 38.928C47.4836 39.1627 47.3663 39.4293 47.3663 39.728V53.872C47.3663 54.2133 47.4836 54.4907 47.7183 54.704C47.9529 54.9173 48.2196 55.024 48.5183 55.024H52.1663C52.5076 55.024 52.7743 54.9173 52.9663 54.704C53.1796 54.4907 53.2863 54.2133 53.2863 53.872V51.536L56.2623 50.832V55.696C56.2623 56.336 56.0383 56.88 55.5903 57.328C55.1636 57.776 54.6196 58 53.9583 58H46.6943ZM60.5677 58C59.9704 58 59.4478 57.776 58.9998 57.328C58.5518 56.88 58.3278 56.3253 58.3278 55.664V37.936C58.3278 37.2747 58.5518 36.72 58.9998 36.272C59.4478 35.824 59.9704 35.6 60.5677 35.6H67.8318C68.5144 35.6 69.0691 35.824 69.4958 36.272C69.9438 36.72 70.1678 37.2747 70.1678 37.936V55.664C70.1678 56.3253 69.9438 56.88 69.4958 57.328C69.0691 57.776 68.5144 58 67.8318 58H60.5677ZM62.3918 55.056H66.0078C66.3704 55.056 66.6584 54.9387 66.8718 54.704C67.1064 54.4693 67.2238 54.1813 67.2238 53.84V39.76C67.2238 39.3973 67.1064 39.1093 66.8718 38.896C66.6584 38.6613 66.3704 38.544 66.0078 38.544H62.3918C62.0931 38.544 61.8264 38.6613 61.5918 38.896C61.3784 39.1093 61.2718 39.3973 61.2718 39.76V53.84C61.2718 54.1813 61.3784 54.4693 61.5918 54.704C61.8264 54.9387 62.0931 55.056 62.3918 55.056ZM72.5465 58V35.6H82.1465C82.7652 35.6 83.2985 35.824 83.7465 36.272C84.2158 36.72 84.4505 37.264 84.4505 37.904V44.784C84.4505 45.424 84.2158 45.968 83.7465 46.416C83.2985 46.864 82.7652 47.088 82.1465 47.088H75.5225V58H72.5465ZM75.5225 44.112H80.3225C80.6425 44.112 80.9092 44.0053 81.1225 43.792C81.3572 43.5573 81.4745 43.28 81.4745 42.96V39.696C81.4745 39.3973 81.3572 39.1413 81.1225 38.928C80.9092 38.6933 80.6425 38.576 80.3225 38.576H75.5225V44.112ZM90.243 58V47.12L85.859 35.6H88.835L91.747 43.248L94.627 35.6H97.603L93.219 47.12V58H90.243ZM101.514 58V35.6H111.114C111.732 35.6 112.266 35.824 112.714 36.272C113.162 36.72 113.386 37.264 113.386 37.904V44.784C113.386 45.424 113.162 45.968 112.714 46.416C112.266 46.864 111.732 47.088 111.114 47.088H110.442L113.386 58H110.442L107.466 47.088H104.49V58H101.514ZM104.49 44.112H109.29C109.588 44.112 109.855 44.0053 110.09 43.792C110.324 43.5573 110.442 43.28 110.442 42.96V39.728C110.442 39.408 110.324 39.1413 110.09 38.928C109.855 38.6933 109.588 38.576 109.29 38.576H104.49V44.112ZM116.015 58V35.6H118.991V58H116.015ZM123.663 58C123.023 58 122.479 57.776 122.031 57.328C121.583 56.88 121.359 56.336 121.359 55.696V37.872C121.359 37.2533 121.583 36.72 122.031 36.272C122.479 35.824 123.023 35.6 123.663 35.6H130.927C131.567 35.6 132.111 35.824 132.559 36.272C133.007 36.72 133.231 37.2533 133.231 37.872V42.864L130.255 42.192V39.696C130.255 39.376 130.138 39.1093 129.903 38.896C129.69 38.6613 129.423 38.544 129.103 38.544H125.487C125.167 38.544 124.89 38.6613 124.655 38.896C124.442 39.1093 124.335 39.376 124.335 39.696V53.872C124.335 54.192 124.442 54.4693 124.655 54.704C124.89 54.9173 125.167 55.024 125.487 55.024H129.103C129.423 55.024 129.69 54.9173 129.903 54.704C130.138 54.4693 130.255 54.192 130.255 53.872V50.768H127.311L127.983 47.792H133.231V55.696C133.231 56.336 133.007 56.88 132.559 57.328C132.111 57.776 131.567 58 130.927 58H123.663ZM135.609 58V35.6H138.585V44.112H144.537V35.6H147.481V58H144.537V47.088H138.585V58H135.609ZM154.179 58V38.576H149.731V35.6H161.603V38.576H157.155V58H154.179ZM172.898 58V38.576H169.922L170.594 35.6H175.874V58H172.898ZM180.484 58L188.228 38.576H180.484V35.6H192.388L183.46 58H180.484ZM196.413 58C195.773 58 195.229 57.776 194.781 57.328C194.333 56.88 194.109 56.336 194.109 55.696V51.536L197.085 52.208V53.904C197.085 54.2027 197.192 54.4693 197.405 54.704C197.64 54.9173 197.917 55.024 198.237 55.024H201.853C202.173 55.024 202.44 54.9173 202.653 54.704C202.888 54.4693 203.005 54.192 203.005 53.872V49.488H196.413C195.773 49.488 195.229 49.264 194.781 48.816C194.333 48.368 194.109 47.824 194.109 47.184V37.904C194.109 37.264 194.333 36.72 194.781 36.272C195.229 35.824 195.773 35.6 196.413 35.6H203.677C204.317 35.6 204.861 35.824 205.309 36.272C205.757 36.72 205.981 37.264 205.981 37.904V55.696C205.981 56.336 205.757 56.88 205.309 57.328C204.861 57.776 204.317 58 203.677 58H196.413ZM198.237 46.512H201.853C202.173 46.512 202.44 46.4053 202.653 46.192C202.888 45.9573 203.005 45.68 203.005 45.36V39.728C203.005 39.408 202.888 39.1413 202.653 38.928C202.44 38.6933 202.173 38.576 201.853 38.576H198.237C197.917 38.576 197.64 38.6933 197.405 38.928C197.192 39.1413 197.085 39.408 197.085 39.728V45.36C197.085 45.68 197.192 45.9573 197.405 46.192C197.64 46.4053 197.917 46.512 198.237 46.512ZM209.953 58V35.6H219.553C220.171 35.6 220.705 35.824 221.153 36.272C221.601 36.72 221.825 37.264 221.825 37.904V55.696C221.825 56.336 221.601 56.88 221.153 57.328C220.705 57.776 220.171 58 219.553 58H209.953ZM212.929 55.024H217.729C218.027 55.024 218.294 54.9173 218.529 54.704C218.763 54.4693 218.881 54.192 218.881 53.872V39.728C218.881 39.408 218.763 39.1413 218.529 38.928C218.294 38.6933 218.027 38.576 217.729 38.576H212.929V55.024ZM228.899 58V47.12L224.515 35.6H227.491L230.403 43.248L233.283 35.6H236.259L231.875 47.12V58H228.899ZM237.984 58V35.6H240.96L246.912 50.544V35.6H249.888V58H246.912L240.96 43.056V58H237.984ZM252.579 58.032L257.091 35.632H260.003L264.451 58.032H261.475L260.611 53.84H256.355L255.555 58.032H252.579ZM256.931 50.896H260.099L258.563 42.928L256.931 50.896ZM265.859 58V35.6H268.835L273.283 49.264L277.731 35.6H280.707V58H277.731V44.688L274.755 53.808H271.811L268.835 44.688V58H265.859ZM283.39 58V35.6H286.366V58H283.39ZM290.726 58C290.128 58 289.595 57.776 289.126 57.328C288.656 56.88 288.422 56.336 288.422 55.696V37.904C288.422 37.2853 288.656 36.752 289.126 36.304C289.595 35.8347 290.128 35.6 290.726 35.6H297.99C298.651 35.6 299.195 35.8347 299.622 36.304C300.07 36.752 300.294 37.2853 300.294 37.904V42.064L297.318 42.736V39.728C297.318 39.4293 297.211 39.1627 296.998 38.928C296.806 38.6933 296.539 38.576 296.198 38.576H292.55C292.251 38.576 291.984 38.6933 291.75 38.928C291.515 39.1627 291.398 39.4293 291.398 39.728V53.872C291.398 54.2133 291.515 54.4907 291.75 54.704C291.984 54.9173 292.251 55.024 292.55 55.024H296.198C296.539 55.024 296.806 54.9173 296.998 54.704C297.211 54.4907 297.318 54.2133 297.318 53.872V51.536L300.294 50.832V55.696C300.294 56.336 300.07 56.88 299.622 57.328C299.195 57.776 298.651 58 297.99 58H290.726ZM306.505 58C305.865 58 305.321 57.776 304.873 57.328C304.425 56.88 304.201 56.336 304.201 55.696V50.736L307.177 51.408V53.872C307.177 54.192 307.284 54.4693 307.497 54.704C307.732 54.9173 307.999 55.024 308.297 55.024H311.945C312.265 55.024 312.532 54.9173 312.745 54.704C312.98 54.4693 313.097 54.192 313.097 53.872V48.24C313.097 47.92 312.98 47.6533 312.745 47.44C312.532 47.2053 312.265 47.088 311.945 47.088H306.505C305.865 47.088 305.321 46.864 304.873 46.416C304.425 45.968 304.201 45.424 304.201 44.784V37.904C304.201 37.264 304.425 36.72 304.873 36.272C305.321 35.824 305.865 35.6 306.505 35.6H313.769C314.409 35.6 314.953 35.824 315.401 36.272C315.849 36.72 316.073 37.264 316.073 37.904V41.36L313.097 40.656V39.728C313.097 39.408 312.98 39.1413 312.745 38.928C312.532 38.6933 312.265 38.576 311.945 38.576H308.297C307.999 38.576 307.732 38.6933 307.497 38.928C307.284 39.1413 307.177 39.408 307.177 39.728V42.96C307.177 43.28 307.284 43.5573 307.497 43.792C307.732 44.0053 307.999 44.112 308.297 44.112H313.769C314.409 44.112 314.953 44.336 315.401 44.784C315.849 45.232 316.073 45.776 316.073 46.416V55.696C316.073 56.336 315.849 56.88 315.401 57.328C314.953 57.776 314.409 58 313.769 58H306.505ZM108.453 93V70.6H118.053C118.671 70.6 119.205 70.824 119.653 71.272C120.101 71.72 120.325 72.264 120.325 72.904V90.696C120.325 91.336 120.101 91.88 119.653 92.328C119.205 92.776 118.671 93 118.053 93H108.453ZM111.429 90.024H116.229C116.527 90.024 116.794 89.9173 117.029 89.704C117.263 89.4693 117.381 89.192 117.381 88.872V74.728C117.381 74.408 117.263 74.1413 117.029 73.928C116.794 73.6933 116.527 73.576 116.229 73.576H111.429V90.024ZM124.943 93C124.345 93 123.823 92.776 123.375 92.328C122.927 91.88 122.703 91.3253 122.703 90.664V72.936C122.703 72.2747 122.927 71.72 123.375 71.272C123.823 70.824 124.345 70.6 124.943 70.6H132.207C132.889 70.6 133.444 70.824 133.871 71.272C134.319 71.72 134.543 72.2747 134.543 72.936V90.664C134.543 91.3253 134.319 91.88 133.871 92.328C133.444 92.776 132.889 93 132.207 93H124.943ZM126.767 90.056H130.383C130.745 90.056 131.033 89.9387 131.247 89.704C131.481 89.4693 131.599 89.1813 131.599 88.84V74.76C131.599 74.3973 131.481 74.1093 131.247 73.896C131.033 73.6613 130.745 73.544 130.383 73.544H126.767C126.468 73.544 126.201 73.6613 125.967 73.896C125.753 74.1093 125.647 74.3973 125.647 74.76V88.84C125.647 89.1813 125.753 89.4693 125.967 89.704C126.201 89.9387 126.468 90.056 126.767 90.056ZM142.984 93V70.6H145.96L151.912 85.544V70.6H154.888V93H151.912L145.96 78.056V93H142.984ZM159.505 93C158.908 93 158.385 92.776 157.937 92.328C157.489 91.88 157.265 91.3253 157.265 90.664V72.936C157.265 72.2747 157.489 71.72 157.937 71.272C158.385 70.824 158.908 70.6 159.505 70.6H166.769C167.452 70.6 168.007 70.824 168.433 71.272C168.881 71.72 169.105 72.2747 169.105 72.936V90.664C169.105 91.3253 168.881 91.88 168.433 92.328C168.007 92.776 167.452 93 166.769 93H159.505ZM161.329 90.056H164.945C165.308 90.056 165.596 89.9387 165.809 89.704C166.044 89.4693 166.161 89.1813 166.161 88.84V74.76C166.161 74.3973 166.044 74.1093 165.809 73.896C165.596 73.6613 165.308 73.544 164.945 73.544H161.329C161.031 73.544 160.764 73.6613 160.529 73.896C160.316 74.1093 160.209 74.3973 160.209 74.76V88.84C160.209 89.1813 160.316 89.4693 160.529 89.704C160.764 89.9387 161.031 90.056 161.329 90.056ZM175.148 93V73.576H170.7V70.6H182.572V73.576H178.124V93H175.148ZM190.89 93V70.6H200.49C201.109 70.6 201.642 70.824 202.09 71.272C202.538 71.72 202.762 72.264 202.762 72.904V90.696C202.762 91.336 202.538 91.88 202.09 92.328C201.642 92.776 201.109 93 200.49 93H190.89ZM193.866 90.024H198.666C198.965 90.024 199.232 89.9173 199.466 89.704C199.701 89.4693 199.818 89.192 199.818 88.872V74.728C199.818 74.408 199.701 74.1413 199.466 73.928C199.232 73.6933 198.965 73.576 198.666 73.576H193.866V90.024ZM205.14 93V70.6H208.116V93H205.14ZM213.036 93C212.397 93 211.853 92.776 211.405 92.328C210.957 91.88 210.733 91.336 210.733 90.696V85.736L213.709 86.408V88.872C213.709 89.192 213.815 89.4693 214.029 89.704C214.263 89.9173 214.53 90.024 214.829 90.024H218.477C218.797 90.024 219.063 89.9173 219.277 89.704C219.511 89.4693 219.629 89.192 219.629 88.872V83.24C219.629 82.92 219.511 82.6533 219.277 82.44C219.063 82.2053 218.797 82.088 218.477 82.088H213.036C212.397 82.088 211.853 81.864 211.405 81.416C210.957 80.968 210.733 80.424 210.733 79.784V72.904C210.733 72.264 210.957 71.72 211.405 71.272C211.853 70.824 212.397 70.6 213.036 70.6H220.301C220.941 70.6 221.485 70.824 221.933 71.272C222.381 71.72 222.605 72.264 222.605 72.904V76.36L219.629 75.656V74.728C219.629 74.408 219.511 74.1413 219.277 73.928C219.063 73.6933 218.797 73.576 218.477 73.576H214.829C214.53 73.576 214.263 73.6933 214.029 73.928C213.815 74.1413 213.709 74.408 213.709 74.728V77.96C213.709 78.28 213.815 78.5573 214.029 78.792C214.263 79.0053 214.53 79.112 214.829 79.112H220.301C220.941 79.112 221.485 79.336 221.933 79.784C222.381 80.232 222.605 80.776 222.605 81.416V90.696C222.605 91.336 222.381 91.88 221.933 92.328C221.485 92.776 220.941 93 220.301 93H213.036ZM228.585 93V73.576H224.137V70.6H236.009V73.576H231.561V93H228.585ZM237.889 93V70.6H247.489C248.107 70.6 248.641 70.824 249.089 71.272C249.537 71.72 249.761 72.264 249.761 72.904V79.784C249.761 80.424 249.537 80.968 249.089 81.416C248.641 81.864 248.107 82.088 247.489 82.088H246.817L249.761 93H246.817L243.841 82.088H240.865V93H237.889ZM240.865 79.112H245.665C245.963 79.112 246.23 79.0053 246.465 78.792C246.699 78.5573 246.817 78.28 246.817 77.96V74.728C246.817 74.408 246.699 74.1413 246.465 73.928C246.23 73.6933 245.963 73.576 245.665 73.576H240.865V79.112ZM252.39 93V70.6H255.366V93H252.39ZM257.67 93V70.568H265.798C266.459 70.568 267.014 70.8027 267.462 71.272C267.91 71.72 268.134 72.2533 268.134 72.872V79.24C268.561 79.3893 268.913 79.6667 269.19 80.072C269.467 80.4773 269.606 80.9147 269.606 81.384V90.664C269.606 91.3253 269.382 91.88 268.934 92.328C268.486 92.776 267.942 93 267.302 93H257.67ZM260.678 79.112H263.974C264.294 79.112 264.571 78.9947 264.806 78.76C265.041 78.5253 265.158 78.2587 265.158 77.96V74.696C265.158 74.376 265.041 74.1093 264.806 73.896C264.571 73.6613 264.294 73.544 263.974 73.544H260.678V79.112ZM260.678 90.024H265.51C265.809 90.024 266.065 89.9173 266.278 89.704C266.513 89.4693 266.63 89.1813 266.63 88.84V83.208C266.63 82.9093 266.513 82.6427 266.278 82.408C266.065 82.1733 265.809 82.056 265.51 82.056H260.678V90.024ZM273.569 93C272.929 93 272.385 92.776 271.937 92.328C271.489 91.88 271.265 91.336 271.265 90.696V70.6H274.241V88.904C274.241 89.2027 274.348 89.4693 274.561 89.704C274.796 89.9173 275.073 90.024 275.393 90.024H279.009C279.329 90.024 279.596 89.9173 279.809 89.704C280.044 89.4693 280.161 89.2027 280.161 88.904V70.6H283.137V90.696C283.137 91.336 282.913 91.88 282.465 92.328C282.017 92.776 281.473 93 280.833 93H273.569ZM289.179 93V73.576H284.731V70.6H296.603V73.576H292.155V93H289.179ZM298.547 93V70.6H310.451V73.544H301.523V79.112H307.475L306.803 82.088H301.523V90.024H310.451V93H298.547ZM313.718 87.016V69.768L316.726 69.064V87.016H313.718ZM313.718 93V89.992H316.726V93H313.718ZM13.599 128C12.959 128 12.415 127.776 11.967 127.328C11.519 126.88 11.295 126.336 11.295 125.696V120.736L14.271 121.408V123.872C14.271 124.192 14.3777 124.469 14.591 124.704C14.8257 124.917 15.0923 125.024 15.391 125.024H19.039C19.359 125.024 19.6257 124.917 19.839 124.704C20.0737 124.469 20.191 124.192 20.191 123.872V118.24C20.191 117.92 20.0737 117.653 19.839 117.44C19.6257 117.205 19.359 117.088 19.039 117.088H13.599C12.959 117.088 12.415 116.864 11.967 116.416C11.519 115.968 11.295 115.424 11.295 114.784V107.904C11.295 107.264 11.519 106.72 11.967 106.272C12.415 105.824 12.959 105.6 13.599 105.6H20.863C21.503 105.6 22.047 105.824 22.495 106.272C22.943 106.72 23.167 107.264 23.167 107.904V111.36L20.191 110.656V109.728C20.191 109.408 20.0737 109.141 19.839 108.928C19.6257 108.693 19.359 108.576 19.039 108.576H15.391C15.0923 108.576 14.8257 108.693 14.591 108.928C14.3777 109.141 14.271 109.408 14.271 109.728V112.96C14.271 113.28 14.3777 113.557 14.591 113.792C14.8257 114.005 15.0923 114.112 15.391 114.112H20.863C21.503 114.112 22.047 114.336 22.495 114.784C22.943 115.232 23.167 115.776 23.167 116.416V125.696C23.167 126.336 22.943 126.88 22.495 127.328C22.047 127.776 21.503 128 20.863 128H13.599ZM25.484 128V105.6H37.388V108.544H28.46V114.112H34.412L33.74 117.088H28.46V125.024H37.388V128H25.484ZM39.3888 128V105.6H48.9888C49.6074 105.6 50.1408 105.824 50.5888 106.272C51.0368 106.72 51.2608 107.264 51.2608 107.904V114.784C51.2608 115.424 51.0368 115.968 50.5888 116.416C50.1408 116.864 49.6074 117.088 48.9888 117.088H48.3168L51.2608 128H48.3168L45.3408 117.088H42.3648V128H39.3888ZM42.3648 114.112H47.1648C47.4634 114.112 47.7301 114.005 47.9648 113.792C48.1994 113.557 48.3168 113.28 48.3168 112.96V109.728C48.3168 109.408 48.1994 109.141 47.9648 108.928C47.7301 108.693 47.4634 108.576 47.1648 108.576H42.3648V114.112ZM59.5555 128L55.1715 105.6H58.1475L61.1235 120.736L64.0995 105.6H67.0755L62.6595 128H59.5555ZM68.8278 128V105.6H80.7318V108.544H71.8038V114.112H77.7558L77.0838 117.088H71.8038V125.024H80.7318V128H68.8278ZM82.7325 128V105.6H92.3325C92.9512 105.6 93.4845 105.824 93.9325 106.272C94.3805 106.72 94.6045 107.264 94.6045 107.904V114.784C94.6045 115.424 94.3805 115.968 93.9325 116.416C93.4845 116.864 92.9512 117.088 92.3325 117.088H91.6605L94.6045 128H91.6605L88.6845 117.088H85.7085V128H82.7325ZM85.7085 114.112H90.5085C90.8072 114.112 91.0738 114.005 91.3085 113.792C91.5432 113.557 91.6605 113.28 91.6605 112.96V109.728C91.6605 109.408 91.5432 109.141 91.3085 108.928C91.0738 108.693 90.8072 108.576 90.5085 108.576H85.7085V114.112ZM105.288 128C104.691 128 104.157 127.776 103.688 127.328C103.219 126.88 102.984 126.336 102.984 125.696V107.904C102.984 107.285 103.219 106.752 103.688 106.304C104.157 105.835 104.691 105.6 105.288 105.6H112.552C113.213 105.6 113.757 105.835 114.184 106.304C114.632 106.752 114.856 107.285 114.856 107.904V112.064L111.88 112.736V109.728C111.88 109.429 111.773 109.163 111.56 108.928C111.368 108.693 111.101 108.576 110.76 108.576H107.112C106.813 108.576 106.547 108.693 106.312 108.928C106.077 109.163 105.96 109.429 105.96 109.728V123.872C105.96 124.213 106.077 124.491 106.312 124.704C106.547 124.917 106.813 125.024 107.112 125.024H110.76C111.101 125.024 111.368 124.917 111.56 124.704C111.773 124.491 111.88 124.213 111.88 123.872V121.536L114.856 120.832V125.696C114.856 126.336 114.632 126.88 114.184 127.328C113.757 127.776 113.213 128 112.552 128H105.288ZM119.161 128C118.564 128 118.042 127.776 117.594 127.328C117.146 126.88 116.922 126.325 116.922 125.664V107.936C116.922 107.275 117.146 106.72 117.594 106.272C118.042 105.824 118.564 105.6 119.161 105.6H126.426C127.108 105.6 127.663 105.824 128.09 106.272C128.538 106.72 128.762 107.275 128.762 107.936V125.664C128.762 126.325 128.538 126.88 128.09 127.328C127.663 127.776 127.108 128 126.426 128H119.161ZM120.986 125.056H124.602C124.964 125.056 125.252 124.939 125.466 124.704C125.7 124.469 125.818 124.181 125.818 123.84V109.76C125.818 109.397 125.7 109.109 125.466 108.896C125.252 108.661 124.964 108.544 124.602 108.544H120.986C120.687 108.544 120.42 108.661 120.186 108.896C119.972 109.109 119.866 109.397 119.866 109.76V123.84C119.866 124.181 119.972 124.469 120.186 124.704C120.42 124.939 120.687 125.056 120.986 125.056ZM131.14 128V105.6H134.116L140.068 120.544V105.6H143.044V128H140.068L134.116 113.056V128H131.14ZM145.422 128V105.6H148.398L154.35 120.544V105.6H157.326V128H154.35L148.398 113.056V128H145.422ZM160.015 128V105.6H171.919V108.544H162.991V114.112H168.943L168.271 117.088H162.991V125.024H171.919V128H160.015ZM176.601 128C176.003 128 175.47 127.776 175.001 127.328C174.531 126.88 174.297 126.336 174.297 125.696V107.904C174.297 107.285 174.531 106.752 175.001 106.304C175.47 105.835 176.003 105.6 176.601 105.6H183.865C184.526 105.6 185.07 105.835 185.497 106.304C185.945 106.752 186.169 107.285 186.169 107.904V112.064L183.193 112.736V109.728C183.193 109.429 183.086 109.163 182.873 108.928C182.681 108.693 182.414 108.576 182.073 108.576H178.425C178.126 108.576 177.859 108.693 177.625 108.928C177.39 109.163 177.273 109.429 177.273 109.728V123.872C177.273 124.213 177.39 124.491 177.625 124.704C177.859 124.917 178.126 125.024 178.425 125.024H182.073C182.414 125.024 182.681 124.917 182.873 124.704C183.086 124.491 183.193 124.213 183.193 123.872V121.536L186.169 120.832V125.696C186.169 126.336 185.945 126.88 185.497 127.328C185.07 127.776 184.526 128 183.865 128H176.601ZM192.554 128V108.576H188.106V105.6H199.978V108.576H195.53V128H192.554ZM201.922 128V105.6H204.898V128H201.922ZM209.505 128C208.908 128 208.385 127.776 207.937 127.328C207.489 126.88 207.265 126.325 207.265 125.664V107.936C207.265 107.275 207.489 106.72 207.937 106.272C208.385 105.824 208.908 105.6 209.505 105.6H216.769C217.452 105.6 218.007 105.824 218.433 106.272C218.881 106.72 219.105 107.275 219.105 107.936V125.664C219.105 126.325 218.881 126.88 218.433 127.328C218.007 127.776 217.452 128 216.769 128H209.505ZM211.329 125.056H214.945C215.308 125.056 215.596 124.939 215.809 124.704C216.044 124.469 216.161 124.181 216.161 123.84V109.76C216.161 109.397 216.044 109.109 215.809 108.896C215.596 108.661 215.308 108.544 214.945 108.544H211.329C211.031 108.544 210.764 108.661 210.529 108.896C210.316 109.109 210.209 109.397 210.209 109.76V123.84C210.209 124.181 210.316 124.469 210.529 124.704C210.764 124.939 211.031 125.056 211.329 125.056ZM221.484 128V105.6H224.46L230.412 120.544V105.6H233.388V128H230.412L224.46 113.056V128H221.484ZM246.148 128V108.576H241.7V105.6H253.572V108.576H249.124V128H246.148ZM257.411 128C256.814 128 256.292 127.776 255.844 127.328C255.396 126.88 255.172 126.325 255.172 125.664V107.936C255.172 107.275 255.396 106.72 255.844 106.272C256.292 105.824 256.814 105.6 257.411 105.6H264.676C265.358 105.6 265.913 105.824 266.34 106.272C266.788 106.72 267.012 107.275 267.012 107.936V125.664C267.012 126.325 266.788 126.88 266.34 127.328C265.913 127.776 265.358 128 264.676 128H257.411ZM259.236 125.056H262.852C263.214 125.056 263.502 124.939 263.716 124.704C263.95 124.469 264.068 124.181 264.068 123.84V109.76C264.068 109.397 263.95 109.109 263.716 108.896C263.502 108.661 263.214 108.544 262.852 108.544H259.236C258.937 108.544 258.67 108.661 258.436 108.896C258.222 109.109 258.116 109.397 258.116 109.76V123.84C258.116 124.181 258.222 124.469 258.436 124.704C258.67 124.939 258.937 125.056 259.236 125.056ZM270.984 128V105.6H273.96V120.544L279.88 105.6H282.856L278.408 116.8L282.856 128H279.88L276.936 120.544L273.96 128H270.984ZM284.578 128V105.6H296.482V108.544H287.554V114.112H293.506L292.834 117.088H287.554V125.024H296.482V128H284.578ZM298.547 128V105.6H301.523L307.475 120.544V105.6H310.451V128H307.475L301.523 113.056V128H298.547ZM313.718 115.008V112H316.726V115.008H313.718ZM313.718 128V124.992H316.726V128H313.718ZM98.5925 163L101.601 155L98.5925 147H101.601L103.105 151L104.609 147H107.585L104.609 155L107.585 163H104.609L103.105 159L101.601 163H98.5925ZM113.835 163V143.576H110.859L111.531 140.6H116.811V163H113.835ZM122.132 163C121.492 163 120.948 162.776 120.5 162.328C120.052 161.88 119.828 161.336 119.828 160.696V156.536L122.804 157.208V158.904C122.804 159.203 122.91 159.469 123.124 159.704C123.358 159.917 123.636 160.024 123.956 160.024H127.572C127.892 160.024 128.158 159.917 128.372 159.704C128.606 159.469 128.724 159.192 128.724 158.872V154.488H122.132C121.492 154.488 120.948 154.264 120.5 153.816C120.052 153.368 119.828 152.824 119.828 152.184V142.904C119.828 142.264 120.052 141.72 120.5 141.272C120.948 140.824 121.492 140.6 122.132 140.6H129.396C130.036 140.6 130.58 140.824 131.028 141.272C131.476 141.72 131.7 142.264 131.7 142.904V160.696C131.7 161.336 131.476 161.88 131.028 162.328C130.58 162.776 130.036 163 129.396 163H122.132ZM123.956 151.512H127.572C127.892 151.512 128.158 151.405 128.372 151.192C128.606 150.957 128.724 150.68 128.724 150.36V144.728C128.724 144.408 128.606 144.141 128.372 143.928C128.158 143.693 127.892 143.576 127.572 143.576H123.956C123.636 143.576 123.358 143.693 123.124 143.928C122.91 144.141 122.804 144.408 122.804 144.728V150.36C122.804 150.68 122.91 150.957 123.124 151.192C123.358 151.405 123.636 151.512 123.956 151.512ZM136.382 163C135.742 163 135.198 162.776 134.75 162.328C134.302 161.88 134.078 161.336 134.078 160.696V142.904C134.078 142.264 134.302 141.72 134.75 141.272C135.198 140.824 135.742 140.6 136.382 140.6H143.646C144.286 140.6 144.83 140.824 145.278 141.272C145.726 141.72 145.95 142.264 145.95 142.904V160.696C145.95 161.336 145.726 161.88 145.278 162.328C144.83 162.776 144.286 163 143.646 163H136.382ZM138.206 160.024H141.822C142.142 160.024 142.408 159.917 142.622 159.704C142.856 159.469 142.974 159.192 142.974 158.872V144.728C142.974 144.408 142.856 144.141 142.622 143.928C142.408 143.693 142.142 143.576 141.822 143.576H138.206C137.886 143.576 137.608 143.693 137.374 143.928C137.16 144.141 137.054 144.408 137.054 144.728V158.872C137.054 159.192 137.16 159.469 137.374 159.704C137.608 159.917 137.886 160.024 138.206 160.024ZM150.536 163C149.917 163 149.384 162.776 148.936 162.328C148.488 161.88 148.264 161.336 148.264 160.696V151.416C148.264 150.925 148.402 150.488 148.68 150.104C148.957 149.699 149.309 149.421 149.736 149.272V142.904C149.736 142.264 149.96 141.72 150.408 141.272C150.856 140.824 151.4 140.6 152.04 140.6H156.36C156.978 140.6 157.512 140.824 157.96 141.272C158.408 141.72 158.632 142.264 158.632 142.904V149.272C159.08 149.421 159.442 149.699 159.72 150.104C159.997 150.488 160.136 150.925 160.136 151.416V160.696C160.136 161.336 159.912 161.88 159.464 162.328C159.016 162.776 158.472 163 157.832 163H150.536ZM153.864 149.112H154.536C154.856 149.112 155.122 149.005 155.336 148.792C155.57 148.557 155.688 148.28 155.688 147.96V144.728C155.688 144.408 155.57 144.141 155.336 143.928C155.122 143.693 154.856 143.576 154.536 143.576H153.864C153.544 143.576 153.266 143.693 153.032 143.928C152.818 144.141 152.712 144.408 152.712 144.728V147.96C152.712 148.28 152.818 148.557 153.032 148.792C153.266 149.005 153.544 149.112 153.864 149.112ZM152.36 160.024H156.008C156.328 160.024 156.594 159.917 156.808 159.704C157.042 159.469 157.16 159.192 157.16 158.872V153.24C157.16 152.92 157.042 152.653 156.808 152.44C156.594 152.205 156.328 152.088 156.008 152.088H152.36C152.061 152.088 151.794 152.205 151.56 152.44C151.325 152.653 151.208 152.92 151.208 153.24V158.872C151.208 159.192 151.325 159.469 151.56 159.704C151.794 159.917 152.061 160.024 152.36 160.024ZM162.718 163V159.992H165.726V163H162.718ZM169.398 163V143.576H166.422L167.094 140.6H172.374V163H169.398ZM179.96 163V143.576H176.984L177.656 140.6H182.936V163H179.96ZM195.483 163V155.064H186.587V152.088L195.483 140.6H198.459V152.088H199.387L200.091 155.064H198.459V163H195.483ZM190.331 152.088H195.483V145.464L190.331 152.088ZM205.726 163C205.086 163 204.542 162.776 204.094 162.328C203.646 161.88 203.422 161.336 203.422 160.696V156.536L206.398 157.208V158.904C206.398 159.203 206.504 159.469 206.718 159.704C206.952 159.917 207.23 160.024 207.55 160.024H211.166C211.486 160.024 211.752 159.917 211.966 159.704C212.2 159.469 212.318 159.192 212.318 158.872V154.488H205.726C205.086 154.488 204.542 154.264 204.094 153.816C203.646 153.368 203.422 152.824 203.422 152.184V142.904C203.422 142.264 203.646 141.72 204.094 141.272C204.542 140.824 205.086 140.6 205.726 140.6H212.99C213.63 140.6 214.174 140.824 214.622 141.272C215.07 141.72 215.294 142.264 215.294 142.904V160.696C215.294 161.336 215.07 161.88 214.622 162.328C214.174 162.776 213.63 163 212.99 163H205.726ZM207.55 151.512H211.166C211.486 151.512 211.752 151.405 211.966 151.192C212.2 150.957 212.318 150.68 212.318 150.36V144.728C212.318 144.408 212.2 144.141 211.966 143.928C211.752 143.693 211.486 143.576 211.166 143.576H207.55C207.23 143.576 206.952 143.693 206.718 143.928C206.504 144.141 206.398 144.408 206.398 144.728V150.36C206.398 150.68 206.504 150.957 206.718 151.192C206.952 151.405 207.23 151.512 207.55 151.512ZM218.561 163V159.992H221.569V163H218.561ZM227.132 163C226.492 163 225.948 162.776 225.5 162.328C225.052 161.88 224.828 161.336 224.828 160.696V156.536L227.804 157.208V158.904C227.804 159.203 227.91 159.469 228.124 159.704C228.358 159.917 228.636 160.024 228.956 160.024H232.572C232.892 160.024 233.158 159.917 233.372 159.704C233.606 159.469 233.724 159.192 233.724 158.872V154.488H227.132C226.492 154.488 225.948 154.264 225.5 153.816C225.052 153.368 224.828 152.824 224.828 152.184V142.904C224.828 142.264 225.052 141.72 225.5 141.272C225.948 140.824 226.492 140.6 227.132 140.6H234.396C235.036 140.6 235.58 140.824 236.028 141.272C236.476 141.72 236.7 142.264 236.7 142.904V160.696C236.7 161.336 236.476 161.88 236.028 162.328C235.58 162.776 235.036 163 234.396 163H227.132ZM228.956 151.512H232.572C232.892 151.512 233.158 151.405 233.372 151.192C233.606 150.957 233.724 150.68 233.724 150.36V144.728C233.724 144.408 233.606 144.141 233.372 143.928C233.158 143.693 232.892 143.576 232.572 143.576H228.956C228.636 143.576 228.358 143.693 228.124 143.928C227.91 144.141 227.804 144.408 227.804 144.728V150.36C227.804 150.68 227.91 150.957 228.124 151.192C228.358 151.405 228.636 151.512 228.956 151.512ZM241.694 163C241.054 163 240.51 162.776 240.062 162.328C239.614 161.88 239.39 161.336 239.39 160.696V156.536L242.366 157.208V158.904C242.366 159.203 242.473 159.469 242.686 159.704C242.921 159.917 243.198 160.024 243.518 160.024H247.134C247.454 160.024 247.721 159.917 247.934 159.704C248.169 159.469 248.286 159.192 248.286 158.872V154.488H241.694C241.054 154.488 240.51 154.264 240.062 153.816C239.614 153.368 239.39 152.824 239.39 152.184V142.904C239.39 142.264 239.614 141.72 240.062 141.272C240.51 140.824 241.054 140.6 241.694 140.6H248.958C249.598 140.6 250.142 140.824 250.59 141.272C251.038 141.72 251.262 142.264 251.262 142.904V160.696C251.262 161.336 251.038 161.88 250.59 162.328C250.142 162.776 249.598 163 248.958 163H241.694ZM243.518 151.512H247.134C247.454 151.512 247.721 151.405 247.934 151.192C248.169 150.957 248.286 150.68 248.286 150.36V144.728C248.286 144.408 248.169 144.141 247.934 143.928C247.721 143.693 247.454 143.576 247.134 143.576H243.518C243.198 143.576 242.921 143.693 242.686 143.928C242.473 144.141 242.366 144.408 242.366 144.728V150.36C242.366 150.68 242.473 150.957 242.686 151.192C242.921 151.405 243.198 151.512 243.518 151.512ZM254.265 163V160.024L263.161 146.392V144.696C263.161 144.376 263.044 144.109 262.809 143.896C262.596 143.661 262.34 143.544 262.041 143.544H258.393C258.073 143.544 257.796 143.661 257.561 143.896C257.348 144.109 257.241 144.376 257.241 144.696V147.064L254.265 146.392V142.872C254.265 142.253 254.489 141.72 254.937 141.272C255.385 140.824 255.929 140.6 256.569 140.6H263.865C264.484 140.6 265.017 140.824 265.465 141.272C265.913 141.72 266.137 142.253 266.137 142.872V147.064L257.913 160.024H266.137V163H254.265ZM269.14 163V160.024L278.036 146.392V144.696C278.036 144.376 277.919 144.109 277.684 143.896C277.471 143.661 277.215 143.544 276.916 143.544H273.268C272.948 143.544 272.671 143.661 272.436 143.896C272.223 144.109 272.116 144.376 272.116 144.696V147.064L269.14 146.392V142.872C269.14 142.253 269.364 141.72 269.812 141.272C270.26 140.824 270.804 140.6 271.444 140.6H278.74C279.359 140.6 279.892 140.824 280.34 141.272C280.788 141.72 281.012 142.253 281.012 142.872V147.064L272.788 160.024H281.012V163H269.14ZM283.968 163V159.992H286.976V163H283.968ZM292.538 163C291.898 163 291.354 162.776 290.906 162.328C290.458 161.88 290.234 161.336 290.234 160.696V156.536L293.21 157.208V158.904C293.21 159.203 293.317 159.469 293.53 159.704C293.765 159.917 294.042 160.024 294.362 160.024H297.978C298.298 160.024 298.565 159.917 298.778 159.704C299.013 159.469 299.13 159.192 299.13 158.872V154.488H292.538C291.898 154.488 291.354 154.264 290.906 153.816C290.458 153.368 290.234 152.824 290.234 152.184V142.904C290.234 142.264 290.458 141.72 290.906 141.272C291.354 140.824 291.898 140.6 292.538 140.6H299.802C300.442 140.6 300.986 140.824 301.434 141.272C301.882 141.72 302.106 142.264 302.106 142.904V160.696C302.106 161.336 301.882 161.88 301.434 162.328C300.986 162.776 300.442 163 299.802 163H292.538ZM294.362 151.512H297.978C298.298 151.512 298.565 151.405 298.778 151.192C299.013 150.957 299.13 150.68 299.13 150.36V144.728C299.13 144.408 299.013 144.141 298.778 143.928C298.565 143.693 298.298 143.576 297.978 143.576H294.362C294.042 143.576 293.765 143.693 293.53 143.928C293.317 144.141 293.21 144.408 293.21 144.728V150.36C293.21 150.68 293.317 150.957 293.53 151.192C293.765 151.405 294.042 151.512 294.362 151.512ZM304.798 163.032L309.31 140.632H312.222L316.67 163.032H313.694L312.83 158.84H308.574L307.774 163.032H304.798ZM309.15 155.896H312.318L310.782 147.928L309.15 155.896ZM0.6715 198V175.6H10.2715C10.8902 175.6 11.4235 175.824 11.8715 176.272C12.3195 176.72 12.5435 177.264 12.5435 177.904V195.696C12.5435 196.336 12.3195 196.88 11.8715 197.328C11.4235 197.776 10.8902 198 10.2715 198H0.6715ZM3.6475 195.024H8.4475C8.74617 195.024 9.01283 194.917 9.2475 194.704C9.48217 194.469 9.5995 194.192 9.5995 193.872V179.728C9.5995 179.408 9.48217 179.141 9.2475 178.928C9.01283 178.693 8.74617 178.576 8.4475 178.576H3.6475V195.024ZM17.1615 198C16.5642 198 16.0415 197.776 15.5935 197.328C15.1455 196.88 14.9215 196.325 14.9215 195.664V177.936C14.9215 177.275 15.1455 176.72 15.5935 176.272C16.0415 175.824 16.5642 175.6 17.1615 175.6H24.4255C25.1082 175.6 25.6628 175.824 26.0895 176.272C26.5375 176.72 26.7615 177.275 26.7615 177.936V195.664C26.7615 196.325 26.5375 196.88 26.0895 197.328C25.6628 197.776 25.1082 198 24.4255 198H17.1615ZM18.9855 195.056H22.6015C22.9642 195.056 23.2522 194.939 23.4655 194.704C23.7002 194.469 23.8175 194.181 23.8175 193.84V179.76C23.8175 179.397 23.7002 179.109 23.4655 178.896C23.2522 178.661 22.9642 178.544 22.6015 178.544H18.9855C18.6868 178.544 18.4202 178.661 18.1855 178.896C17.9722 179.109 17.8655 179.397 17.8655 179.76V193.84C17.8655 194.181 17.9722 194.469 18.1855 194.704C18.4202 194.939 18.6868 195.056 18.9855 195.056ZM31.3802 198C30.7403 198 30.1963 197.776 29.7483 197.328C29.3003 196.88 29.0763 196.336 29.0763 195.696V190.736L32.0523 191.408V193.872C32.0523 194.192 32.1589 194.469 32.3723 194.704C32.6069 194.917 32.8736 195.024 33.1723 195.024H36.8203C37.1403 195.024 37.4069 194.917 37.6203 194.704C37.8549 194.469 37.9723 194.192 37.9723 193.872V188.24C37.9723 187.92 37.8549 187.653 37.6203 187.44C37.4069 187.205 37.1403 187.088 36.8203 187.088H31.3802C30.7403 187.088 30.1963 186.864 29.7483 186.416C29.3003 185.968 29.0763 185.424 29.0763 184.784V177.904C29.0763 177.264 29.3003 176.72 29.7483 176.272C30.1963 175.824 30.7403 175.6 31.3802 175.6H38.6443C39.2843 175.6 39.8283 175.824 40.2763 176.272C40.7243 176.72 40.9483 177.264 40.9483 177.904V181.36L37.9723 180.656V179.728C37.9723 179.408 37.8549 179.141 37.6203 178.928C37.4069 178.693 37.1403 178.576 36.8203 178.576H33.1723C32.8736 178.576 32.6069 178.693 32.3723 178.928C32.1589 179.141 32.0523 179.408 32.0523 179.728V182.96C32.0523 183.28 32.1589 183.557 32.3723 183.792C32.6069 184.005 32.8736 184.112 33.1723 184.112H38.6443C39.2843 184.112 39.8283 184.336 40.2763 184.784C40.7243 185.232 40.9483 185.776 40.9483 186.416V195.696C40.9483 196.336 40.7243 196.88 40.2763 197.328C39.8283 197.776 39.2843 198 38.6443 198H31.3802ZM45.8177 198C45.1778 198 44.6338 197.776 44.1858 197.328C43.7378 196.88 43.5138 196.336 43.5138 195.696V190.736L46.4898 191.408V193.872C46.4898 194.192 46.5964 194.469 46.8098 194.704C47.0444 194.917 47.3111 195.024 47.6098 195.024H51.2578C51.5778 195.024 51.8444 194.917 52.0578 194.704C52.2924 194.469 52.4098 194.192 52.4098 193.872V188.24C52.4098 187.92 52.2924 187.653 52.0578 187.44C51.8444 187.205 51.5778 187.088 51.2578 187.088H45.8177C45.1778 187.088 44.6338 186.864 44.1858 186.416C43.7378 185.968 43.5138 185.424 43.5138 184.784V177.904C43.5138 177.264 43.7378 176.72 44.1858 176.272C44.6338 175.824 45.1778 175.6 45.8177 175.6H53.0818C53.7218 175.6 54.2658 175.824 54.7138 176.272C55.1618 176.72 55.3858 177.264 55.3858 177.904V181.36L52.4098 180.656V179.728C52.4098 179.408 52.2924 179.141 52.0578 178.928C51.8444 178.693 51.5778 178.576 51.2578 178.576H47.6098C47.3111 178.576 47.0444 178.693 46.8098 178.928C46.5964 179.141 46.4898 179.408 46.4898 179.728V182.96C46.4898 183.28 46.5964 183.557 46.8098 183.792C47.0444 184.005 47.3111 184.112 47.6098 184.112H53.0818C53.7218 184.112 54.2658 184.336 54.7138 184.784C55.1618 185.232 55.3858 185.776 55.3858 186.416V195.696C55.3858 196.336 55.1618 196.88 54.7138 197.328C54.2658 197.776 53.7218 198 53.0818 198H45.8177ZM58.0153 198V175.6H60.9913V198H58.0153ZM63.359 198V175.6H75.263V178.544H66.335V184.112H72.287L71.615 187.088H66.335V195.024H75.263V198H63.359ZM77.2638 198V175.6H86.8638C87.4824 175.6 88.0158 175.824 88.4638 176.272C88.9118 176.72 89.1358 177.264 89.1358 177.904V184.784C89.1358 185.424 88.9118 185.968 88.4638 186.416C88.0158 186.864 87.4824 187.088 86.8638 187.088H86.1918L89.1358 198H86.1918L83.2158 187.088H80.2398V198H77.2638ZM80.2398 184.112H85.0398C85.3384 184.112 85.6051 184.005 85.8398 183.792C86.0744 183.557 86.1918 183.28 86.1918 182.96V179.728C86.1918 179.408 86.0744 179.141 85.8398 178.928C85.6051 178.693 85.3384 178.576 85.0398 178.576H80.2398V184.112ZM97.5153 198V175.6H107.115C107.734 175.6 108.267 175.824 108.715 176.272C109.185 176.72 109.419 177.264 109.419 177.904V184.784C109.419 185.424 109.185 185.968 108.715 186.416C108.267 186.864 107.734 187.088 107.115 187.088H100.491V198H97.5153ZM100.491 184.112H105.291C105.611 184.112 105.878 184.005 106.091 183.792C106.326 183.557 106.443 183.28 106.443 182.96V179.696C106.443 179.397 106.326 179.141 106.091 178.928C105.878 178.693 105.611 178.576 105.291 178.576H100.491V184.112ZM108.923 198.032L113.435 175.632H116.347L120.795 198.032H117.819L116.955 193.84H112.699L111.899 198.032H108.923ZM113.275 190.896H116.443L114.907 182.928L113.275 190.896ZM126.101 198C125.503 198 124.97 197.776 124.501 197.328C124.031 196.88 123.797 196.336 123.797 195.696V177.904C123.797 177.285 124.031 176.752 124.501 176.304C124.97 175.835 125.503 175.6 126.101 175.6H133.365C134.026 175.6 134.57 175.835 134.997 176.304C135.445 176.752 135.669 177.285 135.669 177.904V182.064L132.693 182.736V179.728C132.693 179.429 132.586 179.163 132.373 178.928C132.181 178.693 131.914 178.576 131.573 178.576H127.925C127.626 178.576 127.359 178.693 127.125 178.928C126.89 179.163 126.773 179.429 126.773 179.728V193.872C126.773 194.213 126.89 194.491 127.125 194.704C127.359 194.917 127.626 195.024 127.925 195.024H131.573C131.914 195.024 132.181 194.917 132.373 194.704C132.586 194.491 132.693 194.213 132.693 193.872V191.536L135.669 190.832V195.696C135.669 196.336 135.445 196.88 134.997 197.328C134.57 197.776 134.026 198 133.365 198H126.101ZM138.047 198V175.6H141.023V190.544L146.943 175.6H149.919L145.47 186.8L149.919 198H146.943L143.999 190.544L141.023 198H138.047ZM152.61 198.032L157.122 175.632H160.034L164.482 198.032H161.506L160.642 193.84H156.386L155.586 198.032H152.61ZM156.962 190.896H160.13L158.594 182.928L156.962 190.896ZM168.194 198C167.554 198 167.01 197.776 166.562 197.328C166.114 196.88 165.89 196.336 165.89 195.696V177.872C165.89 177.253 166.114 176.72 166.562 176.272C167.01 175.824 167.554 175.6 168.194 175.6H175.458C176.098 175.6 176.642 175.824 177.09 176.272C177.538 176.72 177.762 177.253 177.762 177.872V182.864L174.786 182.192V179.696C174.786 179.376 174.669 179.109 174.434 178.896C174.221 178.661 173.954 178.544 173.634 178.544H170.018C169.698 178.544 169.421 178.661 169.186 178.896C168.973 179.109 168.866 179.376 168.866 179.696V193.872C168.866 194.192 168.973 194.469 169.186 194.704C169.421 194.917 169.698 195.024 170.018 195.024H173.634C173.954 195.024 174.221 194.917 174.434 194.704C174.669 194.469 174.786 194.192 174.786 193.872V190.768H171.842L172.514 187.792H177.762V195.696C177.762 196.336 177.538 196.88 177.09 197.328C176.642 197.776 176.098 198 175.458 198H168.194ZM180.453 198V175.6H192.357V178.544H183.429V184.112H189.381L188.709 187.088H183.429V195.024H192.357V198H180.453ZM203.036 198C202.397 198 201.853 197.776 201.405 197.328C200.957 196.88 200.733 196.336 200.733 195.696V190.736L203.709 191.408V193.872C203.709 194.192 203.815 194.469 204.029 194.704C204.263 194.917 204.53 195.024 204.829 195.024H208.477C208.797 195.024 209.063 194.917 209.277 194.704C209.511 194.469 209.629 194.192 209.629 193.872V188.24C209.629 187.92 209.511 187.653 209.277 187.44C209.063 187.205 208.797 187.088 208.477 187.088H203.036C202.397 187.088 201.853 186.864 201.405 186.416C200.957 185.968 200.733 185.424 200.733 184.784V177.904C200.733 177.264 200.957 176.72 201.405 176.272C201.853 175.824 202.397 175.6 203.036 175.6H210.301C210.941 175.6 211.485 175.824 211.933 176.272C212.381 176.72 212.605 177.264 212.605 177.904V181.36L209.629 180.656V179.728C209.629 179.408 209.511 179.141 209.277 178.928C209.063 178.693 208.797 178.576 208.477 178.576H204.829C204.53 178.576 204.263 178.693 204.029 178.928C203.815 179.141 203.709 179.408 203.709 179.728V182.96C203.709 183.28 203.815 183.557 204.029 183.792C204.263 184.005 204.53 184.112 204.829 184.112H210.301C210.941 184.112 211.485 184.336 211.933 184.784C212.381 185.232 212.605 185.776 212.605 186.416V195.696C212.605 196.336 212.381 196.88 211.933 197.328C211.485 197.776 210.941 198 210.301 198H203.036ZM213.954 198.032L218.466 175.632H221.378L225.826 198.032H222.85L221.986 193.84H217.73L216.93 198.032H213.954ZM218.306 190.896H221.474L219.938 182.928L218.306 190.896ZM229.14 198V175.6H241.044V178.576H232.116V184.112H238.068L237.396 187.088H232.116V198H229.14ZM243.109 198V175.6H255.013V178.544H246.085V184.112H252.037L251.365 187.088H246.085V195.024H255.013V198H243.109ZM262.828 198V175.6H265.804V184.112H271.756V175.6H274.7V198H271.756V187.088H265.804V198H262.828ZM276.423 198.032L280.935 175.632H283.847L288.295 198.032H285.319L284.455 193.84H280.199L279.399 198.032H276.423ZM280.775 190.896H283.943L282.407 182.928L280.775 190.896ZM292.255 198C291.615 198 291.071 197.776 290.623 197.328C290.175 196.88 289.951 196.336 289.951 195.696V190.736L292.927 191.408V193.872C292.927 194.192 293.034 194.469 293.247 194.704C293.482 194.917 293.749 195.024 294.047 195.024H297.695C298.015 195.024 298.282 194.917 298.495 194.704C298.73 194.469 298.847 194.192 298.847 193.872V188.24C298.847 187.92 298.73 187.653 298.495 187.44C298.282 187.205 298.015 187.088 297.695 187.088H292.255C291.615 187.088 291.071 186.864 290.623 186.416C290.175 185.968 289.951 185.424 289.951 184.784V177.904C289.951 177.264 290.175 176.72 290.623 176.272C291.071 175.824 291.615 175.6 292.255 175.6H299.519C300.159 175.6 300.703 175.824 301.151 176.272C301.599 176.72 301.823 177.264 301.823 177.904V181.36L298.847 180.656V179.728C298.847 179.408 298.73 179.141 298.495 178.928C298.282 178.693 298.015 178.576 297.695 178.576H294.047C293.749 178.576 293.482 178.693 293.247 178.928C293.034 179.141 292.927 179.408 292.927 179.728V182.96C292.927 183.28 293.034 183.557 293.247 183.792C293.482 184.005 293.749 184.112 294.047 184.112H299.519C300.159 184.112 300.703 184.336 301.151 184.784C301.599 185.232 301.823 185.776 301.823 186.416V195.696C301.823 196.336 301.599 196.88 301.151 197.328C300.703 197.776 300.159 198 299.519 198H292.255ZM304.14 198V175.6H307.116V184.112H313.068V175.6H316.012V198H313.068V187.088H307.116V198H304.14ZM164.513 233L165.889 226.088H162.561L163.233 223.112H166.465L167.041 220.136H163.969L164.641 217.192H167.617L168.929 210.6H171.905L170.593 217.192H173.953L175.233 210.6H178.209L176.897 217.192H180.097L179.425 220.136H176.321L175.745 223.112H178.721L178.049 226.088H175.169L173.825 233H170.849L172.193 226.088H168.865L167.489 233H164.513ZM169.441 223.112H172.769L173.345 220.136H170.017L169.441 223.112ZM185.663 233C185.023 233 184.479 232.776 184.031 232.328C183.583 231.88 183.359 231.336 183.359 230.696V212.904C183.359 212.264 183.583 211.72 184.031 211.272C184.479 210.824 185.023 210.6 185.663 210.6H192.927C193.567 210.6 194.111 210.824 194.559 211.272C195.007 211.72 195.231 212.264 195.231 212.904V230.696C195.231 231.336 195.007 231.88 194.559 232.328C194.111 232.776 193.567 233 192.927 233H185.663ZM187.487 230.024H191.103C191.423 230.024 191.69 229.917 191.903 229.704C192.138 229.469 192.255 229.192 192.255 228.872V214.728C192.255 214.408 192.138 214.141 191.903 213.928C191.69 213.693 191.423 213.576 191.103 213.576H187.487C187.167 213.576 186.89 213.693 186.655 213.928C186.442 214.141 186.335 214.408 186.335 214.728V228.872C186.335 229.192 186.442 229.469 186.655 229.704C186.89 229.917 187.167 230.024 187.487 230.024ZM200.882 233C200.242 233 199.698 232.776 199.25 232.328C198.802 231.88 198.578 231.336 198.578 230.696V212.904C198.578 212.264 198.802 211.72 199.25 211.272C199.698 210.824 200.242 210.6 200.882 210.6H208.146C208.786 210.6 209.33 210.824 209.778 211.272C210.226 211.72 210.45 212.264 210.45 212.904V230.696C210.45 231.336 210.226 231.88 209.778 232.328C209.33 232.776 208.786 233 208.146 233H200.882ZM202.706 230.024H206.322C206.642 230.024 206.908 229.917 207.122 229.704C207.356 229.469 207.474 229.192 207.474 228.872V214.728C207.474 214.408 207.356 214.141 207.122 213.928C206.908 213.693 206.642 213.576 206.322 213.576H202.706C202.386 213.576 202.108 213.693 201.874 213.928C201.66 214.141 201.554 214.408 201.554 214.728V228.872C201.554 229.192 201.66 229.469 201.874 229.704C202.108 229.917 202.386 230.024 202.706 230.024ZM216.101 233C215.461 233 214.917 232.776 214.469 232.328C214.021 231.88 213.797 231.336 213.797 230.696V212.904C213.797 212.264 214.021 211.72 214.469 211.272C214.917 210.824 215.461 210.6 216.101 210.6H223.365C224.005 210.6 224.549 210.824 224.997 211.272C225.445 211.72 225.669 212.264 225.669 212.904V230.696C225.669 231.336 225.445 231.88 224.997 232.328C224.549 232.776 224.005 233 223.365 233H216.101ZM217.925 230.024H221.541C221.861 230.024 222.127 229.917 222.341 229.704C222.575 229.469 222.693 229.192 222.693 228.872V214.728C222.693 214.408 222.575 214.141 222.341 213.928C222.127 213.693 221.861 213.576 221.541 213.576H217.925C217.605 213.576 217.327 213.693 217.093 213.928C216.879 214.141 216.773 214.408 216.773 214.728V228.872C216.773 229.192 216.879 229.469 217.093 229.704C217.327 229.917 217.605 230.024 217.925 230.024ZM231.319 233C230.679 233 230.135 232.776 229.687 232.328C229.239 231.88 229.015 231.336 229.015 230.696V212.904C229.015 212.264 229.239 211.72 229.687 211.272C230.135 210.824 230.679 210.6 231.319 210.6H238.583C239.223 210.6 239.767 210.824 240.215 211.272C240.663 211.72 240.887 212.264 240.887 212.904V230.696C240.887 231.336 240.663 231.88 240.215 232.328C239.767 232.776 239.223 233 238.583 233H231.319ZM233.143 230.024H236.759C237.079 230.024 237.346 229.917 237.559 229.704C237.794 229.469 237.911 229.192 237.911 228.872V214.728C237.911 214.408 237.794 214.141 237.559 213.928C237.346 213.693 237.079 213.576 236.759 213.576H233.143C232.823 213.576 232.546 213.693 232.311 213.928C232.098 214.141 231.991 214.408 231.991 214.728V228.872C231.991 229.192 232.098 229.469 232.311 229.704C232.546 229.917 232.823 230.024 233.143 230.024ZM246.538 233C245.898 233 245.354 232.776 244.906 232.328C244.458 231.88 244.234 231.336 244.234 230.696V212.904C244.234 212.264 244.458 211.72 244.906 211.272C245.354 210.824 245.898 210.6 246.538 210.6H253.802C254.442 210.6 254.986 210.824 255.434 211.272C255.882 211.72 256.106 212.264 256.106 212.904V230.696C256.106 231.336 255.882 231.88 255.434 232.328C254.986 232.776 254.442 233 253.802 233H246.538ZM248.362 230.024H251.978C252.298 230.024 252.565 229.917 252.778 229.704C253.013 229.469 253.13 229.192 253.13 228.872V214.728C253.13 214.408 253.013 214.141 252.778 213.928C252.565 213.693 252.298 213.576 251.978 213.576H248.362C248.042 213.576 247.765 213.693 247.53 213.928C247.317 214.141 247.21 214.408 247.21 214.728V228.872C247.21 229.192 247.317 229.469 247.53 229.704C247.765 229.917 248.042 230.024 248.362 230.024ZM261.101 233C260.461 233 259.917 232.776 259.469 232.328C259.021 231.88 258.797 231.336 258.797 230.696V226.504L261.773 227.208V228.872C261.773 229.192 261.879 229.469 262.093 229.704C262.327 229.917 262.605 230.024 262.925 230.024H266.573C266.871 230.024 267.138 229.917 267.373 229.704C267.607 229.469 267.725 229.192 267.725 228.872V223.24C267.725 222.92 267.607 222.653 267.373 222.44C267.138 222.205 266.871 222.088 266.573 222.088H263.629L264.301 219.112H266.573C266.871 219.112 267.138 219.005 267.373 218.792C267.607 218.557 267.725 218.28 267.725 217.96V214.696C267.725 214.397 267.607 214.141 267.373 213.928C267.138 213.693 266.871 213.576 266.573 213.576H262.829V213.544C262.53 213.565 262.274 213.693 262.061 213.928C261.869 214.141 261.773 214.397 261.773 214.696V217.736L258.797 217.064V212.872C258.797 212.253 259.021 211.72 259.469 211.272C259.917 210.824 260.461 210.6 261.101 210.6H268.397C269.015 210.6 269.549 210.824 269.997 211.272C270.445 211.72 270.669 212.253 270.669 212.872V219.784C270.669 220.104 270.626 220.381 270.541 220.616C270.626 220.851 270.669 221.117 270.669 221.416V230.696C270.669 231.336 270.445 231.88 269.997 232.328C269.549 232.776 269.015 233 268.397 233H261.101ZM274.015 233V230.024L282.911 216.392V214.696C282.911 214.376 282.794 214.109 282.559 213.896C282.346 213.661 282.09 213.544 281.791 213.544H278.143C277.823 213.544 277.546 213.661 277.311 213.896C277.098 214.109 276.991 214.376 276.991 214.696V217.064L274.015 216.392V212.872C274.015 212.253 274.239 211.72 274.687 211.272C275.135 210.824 275.679 210.6 276.319 210.6H283.615C284.234 210.6 284.767 210.824 285.215 211.272C285.663 211.72 285.887 212.253 285.887 212.872V217.064L277.663 230.024H285.887V233H274.015ZM296.201 233V225.064H287.305V222.088L296.201 210.6H299.177V222.088H300.105L300.809 225.064H299.177V233H296.201ZM291.049 222.088H296.201V215.464L291.049 222.088ZM304.14 233V230.024L313.036 216.392V214.696C313.036 214.376 312.919 214.109 312.684 213.896C312.471 213.661 312.215 213.544 311.916 213.544H308.268C307.948 213.544 307.671 213.661 307.436 213.896C307.223 214.109 307.116 214.376 307.116 214.696V217.064L304.14 216.392V212.872C304.14 212.253 304.364 211.72 304.812 211.272C305.26 210.824 305.804 210.6 306.444 210.6H313.74C314.359 210.6 314.892 210.824 315.34 211.272C315.788 211.72 316.012 212.253 316.012 212.872V217.064L307.788 230.024H316.012V233H304.14ZM2.20275 303V280.6H11.8028C12.4214 280.6 12.9548 280.824 13.4028 281.272C13.8721 281.72 14.1068 282.264 14.1068 282.904V289.784C14.1068 290.424 13.8721 290.968 13.4028 291.416C12.9548 291.864 12.4214 292.088 11.8028 292.088H5.17875V303H2.20275ZM5.17875 289.112H9.97875C10.2988 289.112 10.5654 289.005 10.7788 288.792C11.0134 288.557 11.1308 288.28 11.1308 287.96V284.696C11.1308 284.397 11.0134 284.141 10.7788 283.928C10.5654 283.693 10.2988 283.576 9.97875 283.576H5.17875V289.112ZM16.1075 303V280.6H25.7075C26.3262 280.6 26.8595 280.824 27.3075 281.272C27.7555 281.72 27.9795 282.264 27.9795 282.904V289.784C27.9795 290.424 27.7555 290.968 27.3075 291.416C26.8595 291.864 26.3262 292.088 25.7075 292.088H25.0355L27.9795 303H25.0355L22.0595 292.088H19.0835V303H16.1075ZM19.0835 289.112H23.8835C24.1822 289.112 24.4488 289.005 24.6835 288.792C24.9182 288.557 25.0355 288.28 25.0355 287.96V284.728C25.0355 284.408 24.9182 284.141 24.6835 283.928C24.4488 283.693 24.1822 283.576 23.8835 283.576H19.0835V289.112ZM30.2965 303V280.6H42.2005V283.544H33.2725V289.112H39.2245L38.5525 292.088H33.2725V300.024H42.2005V303H30.2965ZM46.4427 303C45.8028 303 45.2588 302.776 44.8108 302.328C44.3628 301.88 44.1388 301.336 44.1388 300.696V295.736L47.1148 296.408V298.872C47.1148 299.192 47.2214 299.469 47.4348 299.704C47.6694 299.917 47.9361 300.024 48.2348 300.024H51.8828C52.2028 300.024 52.4694 299.917 52.6828 299.704C52.9174 299.469 53.0348 299.192 53.0348 298.872V293.24C53.0348 292.92 52.9174 292.653 52.6828 292.44C52.4694 292.205 52.2028 292.088 51.8828 292.088H46.4427C45.8028 292.088 45.2588 291.864 44.8108 291.416C44.3628 290.968 44.1388 290.424 44.1388 289.784V282.904C44.1388 282.264 44.3628 281.72 44.8108 281.272C45.2588 280.824 45.8028 280.6 46.4427 280.6H53.7068C54.3468 280.6 54.8908 280.824 55.3388 281.272C55.7868 281.72 56.0108 282.264 56.0108 282.904V286.36L53.0348 285.656V284.728C53.0348 284.408 52.9174 284.141 52.6828 283.928C52.4694 283.693 52.2028 283.576 51.8828 283.576H48.2348C47.9361 283.576 47.6694 283.693 47.4348 283.928C47.2214 284.141 47.1148 284.408 47.1148 284.728V287.96C47.1148 288.28 47.2214 288.557 47.4348 288.792C47.6694 289.005 47.9361 289.112 48.2348 289.112H53.7068C54.3468 289.112 54.8908 289.336 55.3388 289.784C55.7868 290.232 56.0108 290.776 56.0108 291.416V300.696C56.0108 301.336 55.7868 301.88 55.3388 302.328C54.8908 302.776 54.3468 303 53.7068 303H46.4427ZM58.3278 303V280.6H70.2318V283.544H61.3038V289.112H67.2558L66.5838 292.088H61.3038V300.024H70.2318V303H58.3278ZM72.2965 303V280.6H75.2725L81.2245 295.544V280.6H84.2005V303H81.2245L75.2725 288.056V303H72.2965ZM90.5853 303V283.576H86.1373V280.6H98.0093V283.576H93.5613V303H90.5853ZM99.9528 303V280.6H111.857V283.544H102.929V289.112H108.881L108.209 292.088H102.929V300.024H111.857V303H99.9528ZM114.234 303V280.6H123.834C124.453 280.6 124.986 280.824 125.434 281.272C125.882 281.72 126.106 282.264 126.106 282.904V300.696C126.106 301.336 125.882 301.88 125.434 302.328C124.986 302.776 124.453 303 123.834 303H114.234ZM117.21 300.024H122.01C122.309 300.024 122.575 299.917 122.81 299.704C123.045 299.469 123.162 299.192 123.162 298.872V284.728C123.162 284.408 123.045 284.141 122.81 283.928C122.575 283.693 122.309 283.576 122.01 283.576H117.21V300.024ZM133.578 303V280.6H136.554V303H133.578ZM138.922 303V280.6H141.898L147.85 295.544V280.6H150.826V303H147.85L141.898 288.056V303H138.922ZM153.515 303V280.6H165.419V283.576H156.491V289.112H162.443L161.771 292.088H156.491V303H153.515ZM169.38 303C168.783 303 168.26 302.776 167.812 302.328C167.364 301.88 167.14 301.325 167.14 300.664V282.936C167.14 282.275 167.364 281.72 167.812 281.272C168.26 280.824 168.783 280.6 169.38 280.6H176.644C177.327 280.6 177.882 280.824 178.308 281.272C178.756 281.72 178.98 282.275 178.98 282.936V300.664C178.98 301.325 178.756 301.88 178.308 302.328C177.882 302.776 177.327 303 176.644 303H169.38ZM171.204 300.056H174.82C175.183 300.056 175.471 299.939 175.684 299.704C175.919 299.469 176.036 299.181 176.036 298.84V284.76C176.036 284.397 175.919 284.109 175.684 283.896C175.471 283.661 175.183 283.544 174.82 283.544H171.204C170.906 283.544 170.639 283.661 170.404 283.896C170.191 284.109 170.084 284.397 170.084 284.76V298.84C170.084 299.181 170.191 299.469 170.404 299.704C170.639 299.939 170.906 300.056 171.204 300.056ZM181.295 303V280.6H190.895C191.514 280.6 192.047 280.824 192.495 281.272C192.943 281.72 193.167 282.264 193.167 282.904V289.784C193.167 290.424 192.943 290.968 192.495 291.416C192.047 291.864 191.514 292.088 190.895 292.088H190.223L193.167 303H190.223L187.247 292.088H184.271V303H181.295ZM184.271 289.112H189.071C189.37 289.112 189.636 289.005 189.871 288.792C190.106 288.557 190.223 288.28 190.223 287.96V284.728C190.223 284.408 190.106 284.141 189.871 283.928C189.636 283.693 189.37 283.576 189.071 283.576H184.271V289.112ZM195.484 303V280.6H198.46L202.908 294.264L207.356 280.6H210.332V303H207.356V289.688L204.38 298.808H201.436L198.46 289.688V303H195.484ZM212.048 303.032L216.56 280.632H219.472L223.92 303.032H220.944L220.08 298.84H215.824L215.024 303.032H212.048ZM216.4 295.896H219.568L218.032 287.928L216.4 295.896ZM227.398 303V283.576H222.95V280.6H234.822V283.576H230.374V303H227.398ZM236.765 303V280.6H239.741V303H236.765ZM244.349 303C243.752 303 243.229 302.776 242.781 302.328C242.333 301.88 242.109 301.325 242.109 300.664V282.936C242.109 282.275 242.333 281.72 242.781 281.272C243.229 280.824 243.752 280.6 244.349 280.6H251.613C252.296 280.6 252.85 280.824 253.277 281.272C253.725 281.72 253.949 282.275 253.949 282.936V300.664C253.949 301.325 253.725 301.88 253.277 302.328C252.85 302.776 252.296 303 251.613 303H244.349ZM246.173 300.056H249.789C250.152 300.056 250.44 299.939 250.653 299.704C250.888 299.469 251.005 299.181 251.005 298.84V284.76C251.005 284.397 250.888 284.109 250.653 283.896C250.44 283.661 250.152 283.544 249.789 283.544H246.173C245.874 283.544 245.608 283.661 245.373 283.896C245.16 284.109 245.053 284.397 245.053 284.76V298.84C245.053 299.181 245.16 299.469 245.373 299.704C245.608 299.939 245.874 300.056 246.173 300.056ZM256.328 303V280.6H259.304L265.256 295.544V280.6H268.232V303H265.256L259.304 288.056V303H256.328ZM276.672 303V280.6H279.648L284.095 294.264L288.544 280.6H291.52V303H288.544V289.688L285.568 298.808H282.624L279.648 289.688V303H276.672ZM293.235 303.032L297.747 280.632H300.659L305.107 303.032H302.131L301.267 298.84H297.011L296.211 303.032H293.235ZM297.587 295.896H300.755L299.219 287.928L297.587 295.896ZM308.649 303V292.12L304.265 280.6H307.241L310.153 288.248L313.033 280.6H316.009L311.625 292.12V303H308.649ZM56.7568 338C56.1594 338 55.6261 337.776 55.1568 337.328C54.6874 336.88 54.4528 336.336 54.4528 335.696V317.904C54.4528 317.285 54.6874 316.752 55.1568 316.304C55.6261 315.835 56.1594 315.6 56.7568 315.6H64.0208C64.6821 315.6 65.2261 315.835 65.6528 316.304C66.1008 316.752 66.3248 317.285 66.3248 317.904V322.064L63.3488 322.736V319.728C63.3488 319.429 63.2421 319.163 63.0288 318.928C62.8368 318.693 62.5701 318.576 62.2288 318.576H58.5808C58.2821 318.576 58.0154 318.693 57.7808 318.928C57.5461 319.163 57.4288 319.429 57.4288 319.728V333.872C57.4288 334.213 57.5461 334.491 57.7808 334.704C58.0154 334.917 58.2821 335.024 58.5808 335.024H62.2288C62.5701 335.024 62.8368 334.917 63.0288 334.704C63.2421 334.491 63.3488 334.213 63.3488 333.872V331.536L66.3248 330.832V335.696C66.3248 336.336 66.1008 336.88 65.6528 337.328C65.2261 337.776 64.6821 338 64.0208 338H56.7568ZM70.6302 338C70.0329 338 69.5103 337.776 69.0623 337.328C68.6143 336.88 68.3903 336.325 68.3903 335.664V317.936C68.3903 317.275 68.6143 316.72 69.0623 316.272C69.5103 315.824 70.0329 315.6 70.6302 315.6H77.8943C78.5769 315.6 79.1316 315.824 79.5583 316.272C80.0063 316.72 80.2303 317.275 80.2303 317.936V335.664C80.2303 336.325 80.0063 336.88 79.5583 337.328C79.1316 337.776 78.5769 338 77.8943 338H70.6302ZM72.4543 335.056H76.0703C76.4329 335.056 76.7209 334.939 76.9343 334.704C77.1689 334.469 77.2863 334.181 77.2863 333.84V319.76C77.2863 319.397 77.1689 319.109 76.9343 318.896C76.7209 318.661 76.4329 318.544 76.0703 318.544H72.4543C72.1556 318.544 71.8889 318.661 71.6543 318.896C71.4409 319.109 71.3343 319.397 71.3343 319.76V333.84C71.3343 334.181 71.4409 334.469 71.6543 334.704C71.8889 334.939 72.1556 335.056 72.4543 335.056ZM82.609 338V315.6H85.585L91.537 330.544V315.6H94.513V338H91.537L85.585 323.056V338H82.609ZM100.898 338V318.576H96.4498V315.6H108.322V318.576H103.874V338H100.898ZM107.704 338.032L112.216 315.632H115.128L119.576 338.032H116.6L115.736 333.84H111.48L110.68 338.032H107.704ZM112.056 330.896H115.224L113.688 322.928L112.056 330.896ZM122.89 338V315.6H125.866V338H122.89ZM128.234 338V315.6H131.21L137.162 330.544V315.6H140.138V338H137.162L131.21 323.056V338H128.234ZM152.898 338V318.576H148.45V315.6H160.322V318.576H155.874V338H152.898ZM162.201 338V315.6H171.801C172.42 315.6 172.953 315.824 173.401 316.272C173.849 316.72 174.073 317.264 174.073 317.904V324.784C174.073 325.424 173.849 325.968 173.401 326.416C172.953 326.864 172.42 327.088 171.801 327.088H171.129L174.073 338H171.129L168.153 327.088H165.177V338H162.201ZM165.177 324.112H169.977C170.276 324.112 170.543 324.005 170.777 323.792C171.012 323.557 171.129 323.28 171.129 322.96V319.728C171.129 319.408 171.012 319.141 170.777 318.928C170.543 318.693 170.276 318.576 169.977 318.576H165.177V324.112ZM175.735 338.032L180.247 315.632H183.159L187.607 338.032H184.631L183.767 333.84H179.511L178.711 338.032H175.735ZM180.087 330.896H183.255L181.719 322.928L180.087 330.896ZM192.913 338C192.316 338 191.782 337.776 191.313 337.328C190.844 336.88 190.609 336.336 190.609 335.696V317.904C190.609 317.285 190.844 316.752 191.313 316.304C191.782 315.835 192.316 315.6 192.913 315.6H200.177C200.838 315.6 201.382 315.835 201.809 316.304C202.257 316.752 202.481 317.285 202.481 317.904V322.064L199.505 322.736V319.728C199.505 319.429 199.398 319.163 199.185 318.928C198.993 318.693 198.726 318.576 198.385 318.576H194.737C194.438 318.576 194.172 318.693 193.937 318.928C193.702 319.163 193.585 319.429 193.585 319.728V333.872C193.585 334.213 193.702 334.491 193.937 334.704C194.172 334.917 194.438 335.024 194.737 335.024H198.385C198.726 335.024 198.993 334.917 199.185 334.704C199.398 334.491 199.505 334.213 199.505 333.872V331.536L202.481 330.832V335.696C202.481 336.336 202.257 336.88 201.809 337.328C201.382 337.776 200.838 338 200.177 338H192.913ZM206.453 338V315.6H218.357V318.544H209.429V324.112H215.381L214.709 327.088H209.429V335.024H218.357V338H206.453ZM222.599 338C221.959 338 221.415 337.776 220.967 337.328C220.519 336.88 220.295 336.336 220.295 335.696V330.736L223.271 331.408V333.872C223.271 334.192 223.378 334.469 223.591 334.704C223.826 334.917 224.092 335.024 224.391 335.024H228.039C228.359 335.024 228.626 334.917 228.839 334.704C229.074 334.469 229.191 334.192 229.191 333.872V328.24C229.191 327.92 229.074 327.653 228.839 327.44C228.626 327.205 228.359 327.088 228.039 327.088H222.599C221.959 327.088 221.415 326.864 220.967 326.416C220.519 325.968 220.295 325.424 220.295 324.784V317.904C220.295 317.264 220.519 316.72 220.967 316.272C221.415 315.824 221.959 315.6 222.599 315.6H229.863C230.503 315.6 231.047 315.824 231.495 316.272C231.943 316.72 232.167 317.264 232.167 317.904V321.36L229.191 320.656V319.728C229.191 319.408 229.074 319.141 228.839 318.928C228.626 318.693 228.359 318.576 228.039 318.576H224.391C224.092 318.576 223.826 318.693 223.591 318.928C223.378 319.141 223.271 319.408 223.271 319.728V322.96C223.271 323.28 223.378 323.557 223.591 323.792C223.826 324.005 224.092 324.112 224.391 324.112H229.863C230.503 324.112 231.047 324.336 231.495 324.784C231.943 325.232 232.167 325.776 232.167 326.416V335.696C232.167 336.336 231.943 336.88 231.495 337.328C231.047 337.776 230.503 338 229.863 338H222.599ZM242.786 338C242.189 338 241.667 337.776 241.219 337.328C240.771 336.88 240.547 336.325 240.547 335.664V317.936C240.547 317.275 240.771 316.72 241.219 316.272C241.667 315.824 242.189 315.6 242.786 315.6H250.051C250.733 315.6 251.288 315.824 251.715 316.272C252.163 316.72 252.387 317.275 252.387 317.936V335.664C252.387 336.325 252.163 336.88 251.715 337.328C251.288 337.776 250.733 338 250.051 338H242.786ZM244.611 335.056H248.227C248.589 335.056 248.877 334.939 249.091 334.704C249.325 334.469 249.443 334.181 249.443 333.84V319.76C249.443 319.397 249.325 319.109 249.091 318.896C248.877 318.661 248.589 318.544 248.227 318.544H244.611C244.312 318.544 244.045 318.661 243.811 318.896C243.597 319.109 243.491 319.397 243.491 319.76V333.84C243.491 334.181 243.597 334.469 243.811 334.704C244.045 334.939 244.312 335.056 244.611 335.056ZM254.765 338V315.6H266.669V318.576H257.741V324.112H263.693L263.021 327.088H257.741V338H254.765ZM273.828 338V315.6H276.804L282.756 330.544V315.6H285.732V338H282.756L276.804 323.056V338H273.828ZM290.101 338C289.461 338 288.917 337.776 288.469 337.328C288.021 336.88 287.797 336.336 287.797 335.696V315.6H290.773V333.904C290.773 334.203 290.879 334.469 291.093 334.704C291.327 334.917 291.605 335.024 291.925 335.024H295.541C295.861 335.024 296.127 334.917 296.341 334.704C296.575 334.469 296.693 334.203 296.693 333.904V315.6H299.669V335.696C299.669 336.336 299.445 336.88 298.997 337.328C298.549 337.776 298.005 338 297.365 338H290.101ZM305.71 338V318.576H301.262V315.6H313.134V318.576H308.686V338H305.71ZM313.718 338V334.992H316.726V338H313.718Z" fill="#7C2736"/>
</svg>
