<svg width="140" height="443" viewBox="0 0 140 443" fill="none" xmlns="http://www.w3.org/2000/svg">
<path d="M13.7825 442.9C21.4475 442.9 27.565 436.786 27.565 429.121C27.565 421.456 21.4475 415.339 13.7825 415.339C6.11761 415.339 3.05176e-05 421.456 3.05176e-05 429.121C3.05176e-05 436.786 6.11761 442.9 13.7825 442.9ZM20.0245 413.074V384.416L44.9857 341.599V364.251C46.9233 363.497 49.0234 363.068 51.2276 363.068C53.4311 363.068 55.5302 363.497 57.4671 364.251V223.013L82.4291 265.83V319.027C84.3661 318.273 86.4655 317.843 88.6693 317.843C90.8732 317.843 92.9726 318.273 94.9096 319.027V286.864L119.872 329.683V374.179C121.808 373.425 123.908 372.996 126.111 372.996C128.315 372.996 130.415 373.426 132.353 374.18V329.683L94.9096 265.456H94.6921L57.4671 201.603V169.49L94.9096 105.263V80.3682L119.872 123.187V167.683C121.808 166.929 123.908 166.5 126.111 166.5C128.315 166.5 130.415 166.929 132.353 167.684V123.187L94.9096 58.9602V0H82.4291L44.9865 64.2274L7.54311 128.454V154.78C9.47989 154.026 11.5791 153.597 13.7825 153.597C15.9869 153.597 18.087 154.026 20.0245 154.781V128.454L57.4671 64.2274L82.4291 21.4089V105.263L44.9865 169.49L7.54311 233.716V278.212C9.4799 277.458 11.5791 277.029 13.7825 277.029C15.9867 277.029 18.0863 277.459 20.0237 278.213V233.716L44.9857 190.899V320.191L7.54311 384.416V413.073C9.4799 412.319 11.5791 411.889 13.7825 411.889C15.987 411.889 18.087 412.319 20.0245 413.074ZM126.111 404.007C133.776 404.007 139.894 397.89 139.894 390.225C139.894 382.56 133.776 376.442 126.111 376.442C118.446 376.442 112.332 382.56 112.332 390.225C112.332 397.89 118.446 404.007 126.111 404.007ZM51.2276 394.079C58.8926 394.079 65.0068 387.961 65.0068 380.296C65.0068 372.631 58.8926 366.515 51.2276 366.515C43.5627 366.515 37.4451 372.631 37.4451 380.296C37.4451 387.961 43.5627 394.079 51.2276 394.079ZM88.6693 348.855C96.3343 348.855 102.452 342.738 102.452 335.073C102.452 327.408 96.3343 321.294 88.6693 321.294C81.0044 321.294 74.8868 327.408 74.8868 335.073C74.8868 342.738 81.0044 348.855 88.6693 348.855ZM13.7825 308.04C21.4475 308.04 27.565 301.923 27.565 294.258C27.565 286.593 21.4475 280.475 13.7825 280.475C6.11761 280.475 3.05176e-05 286.593 3.05176e-05 294.258C3.05176e-05 301.923 6.11761 308.04 13.7825 308.04ZM126.111 197.511C133.776 197.511 139.894 191.393 139.894 183.728C139.894 176.064 133.776 169.946 126.111 169.946C118.446 169.946 112.332 176.064 112.332 183.728C112.332 191.393 118.446 197.511 126.111 197.511ZM13.7825 184.609C21.4475 184.609 27.565 178.491 27.565 170.826C27.565 163.161 21.4475 157.044 13.7825 157.044C6.11761 157.044 3.05176e-05 163.161 3.05176e-05 170.826C3.05176e-05 178.491 6.11761 184.609 13.7825 184.609Z" fill="black" fill-opacity="0.1"/>
</svg>
