<svg width="126" height="38" viewBox="0 0 126 38" fill="none" xmlns="http://www.w3.org/2000/svg">
<path d="M38.76 19.536H30.44V30H27.656V7.952H30.44V17.264H38.76V7.952H41.544V30H38.76V19.536ZM49.3395 24.368L47.5795 30H44.8275L52.0275 7.952H55.5475L62.7155 30H59.8355L58.0755 24.368H49.3395ZM57.3395 22.064L53.7235 10.32L50.0755 22.064H57.3395ZM72.367 7.6C73.903 7.6 75.2363 7.84533 76.367 8.336C77.519 8.80533 78.3937 9.47733 78.991 10.352C79.6097 11.2267 79.919 12.2293 79.919 13.36C79.919 14.6613 79.4923 15.7173 78.639 16.528C77.7857 17.3173 76.6977 17.808 75.375 18C76.8683 18.128 78.127 18.672 79.151 19.632C80.175 20.5707 80.687 21.84 80.687 23.44C80.687 24.7627 80.3457 25.9467 79.663 26.992C78.9803 28.0373 77.999 28.8587 76.719 29.456C75.439 30.0533 73.9563 30.352 72.271 30.352C70.7137 30.352 69.263 30.0853 67.919 29.552C66.5963 29.0187 65.455 28.2507 64.495 27.248L66.223 25.68C67.9723 27.2373 69.9883 28.016 72.271 28.016C73.9777 28.016 75.3003 27.6213 76.239 26.832C77.199 26.0427 77.679 24.944 77.679 23.536C77.679 22.128 77.2097 21.0827 76.271 20.4C75.3323 19.696 74.0843 19.344 72.527 19.344H68.655L68.975 17.008H72.335C73.679 17.008 74.799 16.7093 75.695 16.112C76.6123 15.4933 77.071 14.5867 77.071 13.392C77.071 12.2613 76.623 11.3973 75.727 10.8C74.8523 10.1813 73.711 9.872 72.303 9.872C71.151 9.872 70.1163 10.0533 69.199 10.416C68.2817 10.7573 67.375 11.28 66.479 11.984L64.943 10.352C66.0523 9.43467 67.2043 8.752 68.399 8.304C69.615 7.83467 70.9377 7.6 72.367 7.6ZM87.7145 24.368L85.9545 30H83.2025L90.4025 7.952H93.9225L101.091 30H98.2105L96.4505 24.368H87.7145ZM95.7145 22.064L92.0985 10.32L88.4505 22.064H95.7145ZM119.83 27.664V34.704H117.622L117.142 30H116.47H105.11H104.406L103.958 34.704H101.75V27.664H103.126C103.681 27.1307 104.107 26.48 104.406 25.712C104.705 24.9227 104.961 23.888 105.174 22.608C105.387 21.328 105.697 19.12 106.102 15.984C106.123 15.7493 106.155 15.4933 106.198 15.216C106.241 14.9387 106.283 14.6293 106.326 14.288L107.126 7.952H118.198V27.664H119.83ZM115.382 10.32H109.59L109.11 14.48C108.705 17.9147 108.385 20.3787 108.15 21.872C107.915 23.3653 107.627 24.56 107.286 25.456C106.945 26.352 106.454 27.088 105.814 27.664H115.382V10.32Z" fill="#A64B6C"/>
<path d="M18 33L3 19.5L18 6" stroke="#A64B6C" stroke-width="4"/>
</svg>
